<svg width="18" height="18" viewBox="0 0 18 18" fill="none" xmlns="http://www.w3.org/2000/svg">
    <path
        d="M10.8213 5.35734V3.53609C10.8213 3.05307 10.6294 2.58983 10.2879 2.24828C9.94634 1.90672 9.48309 1.71484 9.00007 1.71484H2.62569C2.14267 1.71484 1.67943 1.90672 1.33788 2.24828C0.996324 2.58983 0.804443 3.05307 0.804443 3.53609V14.4636C0.804443 14.9466 0.996324 15.4099 1.33788 15.7514C1.67943 16.093 2.14267 16.2848 2.62569 16.2848H9.00007C9.48309 16.2848 9.94634 16.093 10.2879 15.7514C10.6294 15.4099 10.8213 14.9466 10.8213 14.4636V12.6423"
        stroke="#F5F5F7" stroke-width="1.5" stroke-linecap="round" stroke-linejoin="round" />
    <path d="M6.26831 8.99945H17.1958M17.1958 8.99945L14.4639 6.26758M17.1958 8.99945L14.4639 11.7313" stroke="#F5F5F7"
        stroke-width="1.5" stroke-linecap="round" stroke-linejoin="round" />
</svg>