<svg width="155" height="45" viewBox="0 0 155 45" fill="none" xmlns="http://www.w3.org/2000/svg">
<path fill-rule="evenodd" clip-rule="evenodd" d="M27.9649 5.11488C26.9209 4.18908 25.2447 3.28662 23.3001 2.5925C21.3344 1.89084 19.0005 1.36824 16.5873 1.26397C11.7655 1.05562 6.42292 2.53124 3.3319 7.83889C1.39058 11.1724 0.519999 16.4771 1.26445 22.2328C2.01373 28.0258 4.4135 34.4135 9.18945 39.9387C10.1766 41.0807 11.3179 42.0522 12.4935 42.7286C13.6534 43.396 14.9413 43.8291 16.1894 43.7432C17.5103 43.6523 18.6719 42.9825 19.4243 41.6992C20.1373 40.4829 20.4376 38.7998 20.3552 36.6863C20.0707 29.385 23.0575 26.0072 25.7143 23.0025L25.7143 23.0025C26.3157 22.3224 26.9001 21.6615 27.4259 20.9785C29.8584 17.8186 31.0641 14.8016 31.1017 12.0515C31.1399 9.26285 29.9733 6.89595 27.9649 5.11488ZM5.46792 9.08284C7.93453 4.84737 12.2011 3.54859 16.4806 3.7335C18.6181 3.82586 20.708 4.29181 22.4692 4.92047C24.2515 5.55667 25.6054 6.32632 26.3248 6.96427C27.8431 8.3107 28.6576 10.0092 28.6301 12.0177C28.6021 14.0646 27.6952 16.5764 25.4672 19.4707C25.0387 20.0273 24.5241 20.6043 23.9673 21.2286C21.262 24.2618 17.5591 28.4135 17.8852 36.7825C17.9587 38.6667 17.6675 39.8083 17.2919 40.4491C16.9556 41.0226 16.5315 41.242 16.0197 41.2772C15.435 41.3174 14.643 41.1136 13.7262 40.5861C12.8251 40.0676 11.8928 39.2863 11.0595 38.3222C6.63525 33.2039 4.41014 27.2834 3.71587 21.9157C3.01679 16.5108 3.88402 11.8026 5.46792 9.08284ZM21.5322 12.8903C20.0767 11.0491 17.3901 10.334 14.8053 10.8162C12.1504 11.3116 9.45185 13.0717 7.76065 16.3875C6.64124 18.5823 6.35053 21.6189 6.77795 24.7979C7.20922 28.0055 8.38794 31.4945 10.3671 34.6691C11.16 35.9408 12.5616 36.8575 14.0224 36.6319C14.7853 36.5141 15.4586 36.0865 15.914 35.3944C16.3534 34.7265 16.5511 33.8778 16.5511 32.9252C16.5511 29.9203 17.4564 25.3012 20.0179 22.0522C20.7376 21.1393 21.7895 19.7763 22.3364 18.2279C22.9088 16.6073 22.954 14.6888 21.5322 12.8903ZM9.96263 17.5106C11.3107 14.8674 13.3695 13.5986 15.2587 13.2461C17.218 12.8806 18.8624 13.4989 19.5932 14.4233C20.3577 15.3904 20.3735 16.3633 20.0057 17.4047C19.6124 18.5181 18.8135 19.5874 18.0767 20.5218C15.0552 24.3543 14.0793 29.5877 14.0793 32.9252C14.0793 33.5583 13.9456 33.889 13.8491 34.0357C13.7684 34.1582 13.701 34.1804 13.6451 34.1891C13.4685 34.2163 12.9205 34.0924 12.4647 33.3614C10.6759 30.4922 9.61357 27.3381 9.22774 24.4685C8.83807 21.5703 9.1542 19.0957 9.96263 17.5106Z" fill="white"/>
<path d="M23.3001 2.5925L23.2078 2.85116L23.3001 2.5925ZM27.9649 5.11488L27.7826 5.32036L27.9649 5.11488ZM16.5873 1.26397L16.5755 1.53836L16.5873 1.26397ZM3.3319 7.83889L3.56924 7.9771L3.3319 7.83889ZM1.26445 22.2328L1.53683 22.1976L1.26445 22.2328ZM9.18945 39.9387L8.98167 40.1183H8.98167L9.18945 39.9387ZM12.4935 42.7286L12.6305 42.4906L12.4935 42.7286ZM16.1894 43.7432L16.2082 44.0172L16.1894 43.7432ZM19.4243 41.6992L19.6612 41.8381L19.4243 41.6992ZM20.3552 36.6863L20.6297 36.6756L20.3552 36.6863ZM25.7143 23.0025L25.9201 23.1845L25.921 23.1834L25.7143 23.0025ZM25.7143 23.0025L25.5086 22.8205L25.5077 22.8216L25.7143 23.0025ZM27.4259 20.9785L27.2082 20.811L27.4259 20.9785ZM31.1017 12.0515L30.8271 12.0477L31.1017 12.0515ZM16.4806 3.7335L16.4925 3.45911L16.4806 3.7335ZM5.46792 9.08284L5.23058 8.94462L5.46792 9.08284ZM22.4692 4.92047L22.3768 5.17914L22.4692 4.92047ZM26.3248 6.96427L26.5071 6.75878L26.3248 6.96427ZM28.6301 12.0177L28.9048 12.0214L28.6301 12.0177ZM25.4672 19.4707L25.2496 19.3032L25.4672 19.4707ZM23.9673 21.2286L24.1722 21.4114L23.9673 21.2286ZM17.8852 36.7825L17.6108 36.7932L17.8852 36.7825ZM17.2919 40.4491L17.0549 40.3102L17.2919 40.4491ZM16.0197 41.2772L16.0008 41.0032L16.0197 41.2772ZM13.7262 40.5861L13.8632 40.3481L13.7262 40.5861ZM11.0595 38.3222L10.8517 38.5018L11.0595 38.3222ZM3.71587 21.9157L3.98825 21.8805L3.71587 21.9157ZM14.8053 10.8162L14.755 10.5462L14.8053 10.8162ZM21.5322 12.8903L21.3168 13.0606L21.5322 12.8903ZM7.76065 16.3875L8.00532 16.5123L7.76065 16.3875ZM6.77795 24.7979L7.05015 24.7613L6.77795 24.7979ZM10.3671 34.6691L10.134 34.8144L10.3671 34.6691ZM14.0224 36.6319L14.0643 36.9034L14.0224 36.6319ZM15.914 35.3944L15.6845 35.2434V35.2435L15.914 35.3944ZM20.0179 22.0522L19.8022 21.8822L20.0179 22.0522ZM22.3364 18.2279L22.0774 18.1364L22.3364 18.2279ZM15.2587 13.2461L15.3091 13.5161L15.2587 13.2461ZM9.96263 17.5106L9.71796 17.3858L9.96263 17.5106ZM19.5932 14.4233L19.3777 14.5936L19.5932 14.4233ZM20.0057 17.4047L19.7467 17.3132L20.0057 17.4047ZM18.0767 20.5218L18.2924 20.6919L18.0767 20.5218ZM13.8491 34.0357L13.6196 33.8847L13.6196 33.8847L13.8491 34.0357ZM13.6451 34.1891L13.6871 34.4605H13.6871L13.6451 34.1891ZM12.4647 33.3614L12.6977 33.2161H12.6977L12.4647 33.3614ZM9.22774 24.4685L8.95554 24.5051L9.22774 24.4685ZM23.2078 2.85116C25.1344 3.53885 26.7747 4.42655 27.7826 5.32036L28.1471 4.90939C27.0671 3.95162 25.3551 3.0344 23.3925 2.33383L23.2078 2.85116ZM16.5755 1.53836C18.958 1.64131 21.2648 2.15761 23.2078 2.85116L23.3925 2.33383C21.404 1.62406 19.043 1.09517 16.5992 0.989577L16.5755 1.53836ZM3.56924 7.9771C6.59072 2.78885 11.8135 1.3326 16.5755 1.53836L16.5992 0.989577C11.7175 0.778644 6.25512 2.27362 3.09457 7.70067L3.56924 7.9771ZM1.53683 22.1976C0.797416 16.4808 1.66764 11.2424 3.56924 7.9771L3.09457 7.70067C1.11352 11.1024 0.242583 16.4734 0.992074 22.268L1.53683 22.1976ZM9.39723 39.7591C4.66036 34.2791 2.28 27.9433 1.53683 22.1976L0.992074 22.268C1.74746 28.1082 4.16663 34.5478 8.98167 40.1183L9.39723 39.7591ZM12.6305 42.4906C11.4854 41.8317 10.3673 40.8813 9.39723 39.7591L8.98167 40.1183C9.98587 41.28 11.1504 42.2727 12.3565 42.9667L12.6305 42.4906ZM16.1705 43.4692C14.9962 43.55 13.7634 43.1424 12.6305 42.4906L12.3565 42.9667C13.5434 43.6496 14.8864 44.1081 16.2082 44.0172L16.1705 43.4692ZM19.1874 41.5603C18.4812 42.7648 17.4016 43.3845 16.1705 43.4692L16.2082 44.0172C17.619 43.9201 18.8626 43.2003 19.6612 41.8381L19.1874 41.5603ZM20.0808 36.697C20.1621 38.785 19.8629 40.408 19.1874 41.5603L19.6612 41.8381C20.4117 40.5579 20.713 38.8145 20.6297 36.6756L20.0808 36.697ZM25.5086 22.8206C24.182 24.3208 22.7468 25.942 21.685 28.1125C20.6205 30.2887 19.9369 33.0041 20.0808 36.697L20.6297 36.6756C20.489 33.0672 21.1565 30.443 22.1784 28.3538C23.2032 26.259 24.5897 24.6889 25.9201 23.1845L25.5086 22.8206ZM25.5077 22.8216L25.5076 22.8217L25.921 23.1834L25.921 23.1833L25.5077 22.8216ZM27.2082 20.811C26.6892 21.4853 26.1111 22.1392 25.5086 22.8206L25.9201 23.1844C26.5202 22.5057 27.111 21.8377 27.6435 21.146L27.2082 20.811ZM30.8271 12.0477C30.7905 14.7197 29.6181 17.6805 27.2082 20.811L27.6435 21.146C30.0987 17.9567 31.3376 14.8835 31.3764 12.0553L30.8271 12.0477ZM27.7826 5.32036C29.7367 7.05319 30.8641 9.34585 30.8271 12.0477L31.3764 12.0553C31.4157 9.17985 30.2099 6.73871 28.1471 4.90939L27.7826 5.32036ZM16.4925 3.45911C12.1522 3.27157 7.76639 4.59034 5.23058 8.94462L5.70525 9.22106C8.10268 5.10439 12.25 3.82561 16.4688 4.0079L16.4925 3.45911ZM22.5615 4.66181C20.7776 4.02504 18.6606 3.55279 16.4925 3.45911L16.4688 4.0079C18.5757 4.09893 20.6384 4.55859 22.3768 5.17914L22.5615 4.66181ZM26.5071 6.75878C25.7516 6.08884 24.3618 5.30444 22.5615 4.66181L22.3768 5.17914C24.1411 5.80891 25.4593 6.56379 26.1426 7.16976L26.5071 6.75878ZM28.9048 12.0214C28.9335 9.92637 28.0799 8.15357 26.5071 6.75878L26.1426 7.16976C27.6064 8.46782 28.3818 10.092 28.3555 12.0139L28.9048 12.0214ZM25.6848 19.6382C27.9356 16.7144 28.8757 14.1465 28.9048 12.0214L28.3555 12.0139C28.3286 13.9828 27.4549 16.4384 25.2496 19.3032L25.6848 19.6382ZM24.1722 21.4114C24.7274 20.789 25.2491 20.2042 25.6848 19.6382L25.2496 19.3032C24.8283 19.8503 24.3209 20.4195 23.7623 21.0458L24.1722 21.4114ZM18.1597 36.7718C17.9984 32.6329 18.833 29.5484 20.0355 27.1268C21.2403 24.7005 22.8188 22.9289 24.1722 21.4114L23.7623 21.0458C22.4104 22.5615 20.7849 24.3824 19.5435 26.8825C18.2997 29.3873 17.446 32.5632 17.6108 36.7932L18.1597 36.7718ZM17.5288 40.588C17.9419 39.8833 18.2341 38.6815 18.1597 36.7718L17.6108 36.7932C17.6832 38.6519 17.3931 39.7334 17.0549 40.3102L17.5288 40.588ZM16.0385 41.5512C16.3293 41.5312 16.6085 41.4576 16.8659 41.2987C17.1231 41.1399 17.3425 40.9057 17.5288 40.588L17.0549 40.3102C16.905 40.566 16.7443 40.7282 16.5773 40.8313C16.4106 40.9342 16.2219 40.988 16.0008 41.0032L16.0385 41.5512ZM13.5893 40.8242C14.5332 41.3673 15.3802 41.5965 16.0385 41.5512L16.0008 41.0032C15.4898 41.0383 14.7529 40.8599 13.8632 40.3481L13.5893 40.8242ZM10.8517 38.5018C11.7021 39.4857 12.6576 40.2882 13.5893 40.8242L13.8632 40.3481C12.9926 39.8471 12.0835 39.0869 11.2673 38.1426L10.8517 38.5018ZM3.44349 21.951C4.14387 27.3659 6.3884 33.3383 10.8517 38.5018L11.2673 38.1426C6.88211 33.0695 4.6764 27.2009 3.98825 21.8805L3.44349 21.951ZM5.23058 8.94462C3.60699 11.7325 2.73936 16.507 3.44349 21.951L3.98825 21.8805C3.29421 16.5146 4.16106 11.8726 5.70525 9.22106L5.23058 8.94462ZM14.8557 11.0862C17.3716 10.6168 19.9421 11.3217 21.3168 13.0606L21.7477 12.72C20.2112 10.7765 17.4086 10.0512 14.755 10.5462L14.8557 11.0862ZM8.00532 16.5123C9.6584 13.2712 12.2859 11.5657 14.8557 11.0862L14.755 10.5462C12.015 11.0574 9.24531 12.8721 7.51599 16.2627L8.00532 16.5123ZM7.05015 24.7613C6.62692 21.6134 6.92047 18.6393 8.00532 16.5123L7.51599 16.2627C6.36202 18.5253 6.07414 21.6243 6.50575 24.8345L7.05015 24.7613ZM10.6002 34.5238C8.64216 31.3832 7.47637 27.9313 7.05015 24.7613L6.50575 24.8345C6.94207 28.0796 8.13372 31.6059 10.134 34.8144L10.6002 34.5238ZM13.9805 36.3605C12.6637 36.5639 11.3565 35.737 10.6002 34.5238L10.134 34.8144C10.9634 36.1447 12.4594 37.1512 14.0643 36.9034L13.9805 36.3605ZM15.6845 35.2435C15.2708 35.8723 14.6648 36.2548 13.9805 36.3605L14.0643 36.9034C14.9058 36.7734 15.6464 36.3007 16.1434 35.5454L15.6845 35.2435ZM16.2765 32.9252C16.2765 33.8424 16.0859 34.6335 15.6845 35.2434L16.1434 35.5454C16.621 34.8195 16.8258 33.9132 16.8258 32.9252H16.2765ZM19.8022 21.8822C17.1896 25.196 16.2765 29.8833 16.2765 32.9252H16.8258C16.8258 29.9573 17.7232 25.4064 20.2335 22.2223L19.8022 21.8822ZM22.0774 18.1364C21.5476 19.6366 20.5236 20.9671 19.8022 21.8822L20.2335 22.2223C20.9516 21.3115 22.0315 19.9159 22.5954 18.3193L22.0774 18.1364ZM21.3168 13.0606C22.6653 14.7664 22.6273 16.5796 22.0774 18.1364L22.5954 18.3193C23.1903 16.635 23.2428 14.6112 21.7477 12.72L21.3168 13.0606ZM15.2083 12.9761C13.2341 13.3445 11.1042 14.6679 9.71796 17.3858L10.2073 17.6354C11.5173 15.067 13.5049 13.8527 15.3091 13.5161L15.2083 12.9761ZM19.8086 14.2529C18.9978 13.2273 17.2382 12.5974 15.2083 12.9761L15.3091 13.5161C17.1979 13.1637 18.7269 13.7704 19.3777 14.5936L19.8086 14.2529ZM20.2647 17.4961C20.4576 16.9498 20.5564 16.4037 20.4971 15.8566C20.4375 15.3062 20.2199 14.7732 19.8086 14.2529L19.3777 14.5936C19.731 15.0405 19.9035 15.4775 19.951 15.9157C19.9988 16.3572 19.9216 16.8181 19.7467 17.3132L20.2647 17.4961ZM18.2924 20.6919C19.027 19.7601 19.8543 18.6581 20.2647 17.4961L19.7467 17.3132C19.3706 18.3782 18.5999 19.4147 17.8611 20.3518L18.2924 20.6919ZM14.3539 32.9252C14.3539 29.6246 15.322 24.4595 18.2924 20.6919L17.8611 20.3518C14.7884 24.2491 13.8046 29.5508 13.8046 32.9252H14.3539ZM14.0785 34.1867C14.213 33.9822 14.3539 33.5941 14.3539 32.9252H13.8046C13.8046 33.5225 13.6782 33.7958 13.6196 33.8847L14.0785 34.1867ZM13.6871 34.4605C13.7378 34.4527 13.8097 34.4357 13.887 34.3857C13.9611 34.3377 14.0234 34.2704 14.0785 34.1867L13.6196 33.8847C13.5941 33.9235 13.5824 33.9286 13.5886 33.9245C13.5918 33.9224 13.5964 33.9201 13.6014 33.9185C13.6059 33.917 13.6078 33.9169 13.6032 33.9176L13.6871 34.4605ZM12.2316 33.5067C12.4825 33.9091 12.767 34.157 13.0271 34.3002C13.2776 34.4381 13.5206 34.4862 13.6871 34.4605L13.6032 33.9176C13.6039 33.9175 13.5733 33.9206 13.5119 33.9064C13.4543 33.8931 13.3788 33.8667 13.292 33.819C13.12 33.7243 12.9026 33.5446 12.6977 33.2161L12.2316 33.5067ZM8.95554 24.5051C9.34642 27.4122 10.4217 30.6035 12.2316 33.5067L12.6977 33.2161C10.9301 30.3808 9.88072 27.2639 9.49994 24.4319L8.95554 24.5051ZM9.71796 17.3858C8.875 19.0386 8.56167 21.5757 8.95554 24.5051L9.49994 24.4319C9.11447 21.5649 9.43341 19.1527 10.2073 17.6354L9.71796 17.3858Z" fill="black"/>
<mask id="path-3-outside-1_308_2140" maskUnits="userSpaceOnUse" x="37.0977" y="11.293" width="118" height="25" fill="black">
<rect fill="white" x="37.0977" y="11.293" width="118" height="25"/>
<path d="M40.2348 22.5244C40.2348 23.7776 40.504 24.8959 41.0422 25.8794C41.5963 26.8629 42.3483 27.6401 43.2981 28.2112C44.248 28.7823 45.3245 29.0678 46.5276 29.0678C47.7466 29.0678 48.8231 28.7823 49.7571 28.2112C50.707 27.6401 51.451 26.8629 51.9893 25.8794C52.5434 24.8959 52.8204 23.7776 52.8204 22.5244C52.8204 21.2713 52.5434 20.1529 51.9893 19.1695C51.451 18.186 50.707 17.4087 49.7571 16.8376C48.8231 16.2666 47.7466 15.9811 46.5276 15.9811C45.3245 15.9811 44.248 16.2666 43.2981 16.8376C42.3483 17.4087 41.5963 18.186 41.0422 19.1695C40.504 20.1529 40.2348 21.2713 40.2348 22.5244ZM38.0977 22.5244C38.0977 21.303 38.3035 20.1767 38.7151 19.1457C39.1425 18.0987 39.7362 17.1945 40.496 16.4331C41.2559 15.6559 42.1504 15.0531 43.1794 14.6248C44.2084 14.1806 45.3245 13.9586 46.5276 13.9586C47.7466 13.9586 48.8627 14.1806 49.8759 14.6248C50.9049 15.0531 51.7993 15.6559 52.5592 16.4331C53.3191 17.1945 53.9048 18.0987 54.3164 19.1457C54.7439 20.1767 54.9576 21.303 54.9576 22.5244C54.9576 23.73 54.7439 24.8562 54.3164 25.9032C53.9048 26.9501 53.3191 27.8622 52.5592 28.6395C51.7993 29.4009 50.9049 30.0037 49.8759 30.4479C48.8627 30.8761 47.7466 31.0903 46.5276 31.0903C45.3245 31.0903 44.2084 30.8761 43.1794 30.4479C42.1504 30.0037 41.2559 29.4009 40.496 28.6395C39.7362 27.8622 39.1425 26.9501 38.7151 25.9032C38.3035 24.8562 38.0977 23.73 38.0977 22.5244Z"/>
<path d="M66.7046 19.9071L59.5807 36.087H57.4435L60.4356 29.3057L56.2562 19.9071H58.5121L61.9791 28.4729L61.1955 28.3778L64.5675 19.9071H66.7046Z"/>
<path d="M68.947 27.4974C69.1686 27.8305 69.4219 28.1398 69.7069 28.4254C69.9918 28.7109 70.3164 28.9409 70.6805 29.1154C71.0604 29.274 71.472 29.3533 71.9153 29.3533C72.4536 29.3533 72.8731 29.2344 73.1739 28.9964C73.4905 28.7426 73.6488 28.4016 73.6488 27.9733C73.6488 27.5926 73.5221 27.2753 73.2688 27.0215C73.0314 26.7518 72.7227 26.5298 72.3427 26.3553C71.9628 26.1649 71.5591 25.9904 71.1317 25.8318C70.6567 25.6414 70.1739 25.4194 69.6831 25.1656C69.2082 24.8959 68.8045 24.5549 68.4721 24.1424C68.1555 23.7141 67.9971 23.1827 67.9971 22.5482C67.9971 21.8978 68.1634 21.3585 68.4958 20.9302C68.8441 20.5019 69.2874 20.1847 69.8256 19.9785C70.3797 19.7722 70.9496 19.6691 71.5354 19.6691C72.1211 19.6691 72.6673 19.7643 73.1739 19.9547C73.6963 20.145 74.1554 20.3988 74.5512 20.7161C74.9469 21.0333 75.2556 21.3982 75.4773 21.8106L73.9575 22.7862C73.6567 22.3737 73.2768 22.0327 72.8177 21.763C72.3744 21.4933 71.8678 21.3585 71.2979 21.3585C70.9021 21.3585 70.5618 21.4458 70.2768 21.6202C69.9918 21.7947 69.8494 22.0644 69.8494 22.4292C69.8494 22.7148 69.9602 22.9686 70.1818 23.1907C70.4034 23.4127 70.6884 23.611 71.0367 23.7855C71.385 23.96 71.7491 24.1266 72.129 24.2852C72.7623 24.539 73.3401 24.8166 73.8625 25.118C74.3849 25.4035 74.7965 25.7525 75.0973 26.1649C75.4139 26.5773 75.5722 27.1087 75.5722 27.7591C75.5722 28.7109 75.224 29.504 74.5274 30.1385C73.8467 30.773 72.9443 31.0903 71.8203 31.0903C71.0921 31.0903 70.4351 30.9634 69.8494 30.7096C69.2636 30.4399 68.7649 30.0989 68.3533 29.6864C67.9576 29.274 67.6568 28.8536 67.451 28.4254L68.947 27.4974Z"/>
<path d="M76.411 19.9071H81.8726V21.6916H76.411V19.9071ZM78.192 16.1H80.0917V30.8524H78.192V16.1Z"/>
<path d="M88.0048 31.0903C86.9916 31.0903 86.0892 30.8524 85.2977 30.3765C84.522 29.8847 83.9125 29.2106 83.4692 28.354C83.0418 27.4974 82.8281 26.506 82.8281 25.3797C82.8281 24.2376 83.0497 23.2382 83.493 22.3817C83.9521 21.5251 84.5853 20.8588 85.3927 20.383C86.2159 19.9071 87.1657 19.6691 88.2422 19.6691C89.3188 19.6691 90.2369 19.8991 90.9968 20.3592C91.7725 20.8033 92.3662 21.4458 92.7778 22.2865C93.1894 23.1272 93.3952 24.1266 93.3952 25.2845C93.3952 25.3956 93.3873 25.5145 93.3715 25.6414C93.3715 25.7525 93.3715 25.8239 93.3715 25.8556H84.0391V24.2376H91.8754L91.1156 25.3321C91.1631 25.2528 91.2105 25.1338 91.258 24.9752C91.3055 24.8007 91.3293 24.658 91.3293 24.5469C91.3293 23.8965 91.1947 23.3334 90.9256 22.8575C90.6723 22.3817 90.3161 22.0089 89.857 21.7392C89.3979 21.4696 88.8597 21.3347 88.2422 21.3347C87.514 21.3347 86.8887 21.4933 86.3663 21.8106C85.8597 22.112 85.4639 22.5561 85.179 23.1431C84.9098 23.7141 84.7674 24.42 84.7515 25.2607C84.7515 26.1173 84.8861 26.847 85.1552 27.4498C85.4243 28.0526 85.8201 28.5126 86.3425 28.8299C86.865 29.1471 87.4982 29.3057 88.2422 29.3057C88.9863 29.3057 89.6433 29.1471 90.2132 28.8299C90.7831 28.4967 91.266 27.9971 91.6617 27.3308L93.2052 28.3064C92.6353 29.2264 91.915 29.9244 91.0443 30.4003C90.1895 30.8603 89.1763 31.0903 88.0048 31.0903Z"/>
<path d="M97.8987 19.9071V30.8524H95.999V19.9071H97.8987ZM101.199 22.001C100.946 21.8106 100.717 21.6758 100.511 21.5965C100.305 21.5013 100.044 21.4537 99.7272 21.4537C99.2522 21.4537 98.8802 21.5727 98.6111 21.8106C98.3419 22.0485 98.152 22.3737 98.0412 22.7862C97.9462 23.1986 97.8987 23.6665 97.8987 24.19H97.0438C97.0438 23.3176 97.1942 22.5482 97.495 21.882C97.8116 21.1999 98.2153 20.6606 98.7061 20.264C99.1968 19.8674 99.6955 19.6691 100.202 19.6691C100.598 19.6691 100.962 19.7247 101.294 19.8357C101.643 19.9309 101.959 20.1292 102.244 20.4305L101.199 22.001Z"/>
<path d="M111.377 14.1965H113.395V28.9488H119.925V30.8524H111.377V14.1965Z"/>
<path d="M122.803 27.4736C122.803 27.886 122.898 28.2429 123.088 28.5443C123.294 28.8457 123.571 29.0757 123.919 29.2344C124.283 29.3771 124.695 29.4485 125.154 29.4485C125.74 29.4485 126.262 29.3295 126.721 29.0916C127.196 28.8536 127.568 28.5205 127.838 28.0922C128.122 27.6481 128.265 27.1405 128.265 26.5694L128.645 27.9971C128.645 28.695 128.431 29.274 128.004 29.734C127.592 30.194 127.078 30.5351 126.46 30.7572C125.859 30.9793 125.257 31.0903 124.655 31.0903C123.991 31.0903 123.365 30.9555 122.78 30.6858C122.21 30.4003 121.751 29.9958 121.402 29.4723C121.054 28.9488 120.88 28.3143 120.88 27.5688C120.88 26.506 121.252 25.6573 121.996 25.0228C122.756 24.3724 123.809 24.0472 125.154 24.0472C125.946 24.0472 126.603 24.1424 127.125 24.3328C127.663 24.5073 128.091 24.7135 128.407 24.9514C128.724 25.1735 128.938 25.3559 129.049 25.4987V26.617C128.494 26.2363 127.925 25.9666 127.339 25.808C126.753 25.6335 126.128 25.5463 125.463 25.5463C124.845 25.5463 124.339 25.6256 123.943 25.7842C123.563 25.9428 123.278 26.1649 123.088 26.4504C122.898 26.736 122.803 27.077 122.803 27.4736ZM122.518 22.4292L121.592 21.0254C122.004 20.724 122.566 20.4226 123.278 20.1212C124.006 19.8198 124.877 19.6691 125.89 19.6691C126.745 19.6691 127.489 19.804 128.122 20.0736C128.772 20.3274 129.27 20.7002 129.618 21.192C129.983 21.6837 130.165 22.2865 130.165 23.0003V30.8524H128.265V23.262C128.265 22.8813 128.202 22.572 128.075 22.3341C127.948 22.0803 127.766 21.882 127.529 21.7392C127.307 21.5965 127.046 21.4933 126.745 21.4299C126.444 21.3664 126.128 21.3347 125.795 21.3347C125.257 21.3347 124.766 21.3982 124.323 21.5251C123.896 21.652 123.531 21.8027 123.231 21.9772C122.93 22.1516 122.692 22.3023 122.518 22.4292Z"/>
<path d="M135.162 12.293V30.8524H133.262V12.293H135.162ZM144.304 25.3797C144.304 26.5536 144.059 27.5688 143.568 28.4254C143.077 29.2819 142.42 29.9402 141.597 30.4003C140.79 30.8603 139.887 31.0903 138.89 31.0903C137.988 31.0903 137.188 30.8603 136.492 30.4003C135.811 29.9402 135.273 29.2819 134.877 28.4254C134.497 27.5688 134.307 26.5536 134.307 25.3797C134.307 24.19 134.497 23.1748 134.877 22.3341C135.273 21.4775 135.811 20.8192 136.492 20.3592C137.188 19.8991 137.988 19.6691 138.89 19.6691C139.887 19.6691 140.79 19.8991 141.597 20.3592C142.42 20.8192 143.077 21.4775 143.568 22.3341C144.059 23.1748 144.304 24.19 144.304 25.3797ZM142.381 25.3797C142.381 24.539 142.207 23.8252 141.858 23.2382C141.526 22.6513 141.075 22.2072 140.505 21.9058C139.951 21.6044 139.333 21.4537 138.653 21.4537C138.099 21.4537 137.552 21.6044 137.014 21.9058C136.476 22.2072 136.033 22.6513 135.684 23.2382C135.336 23.8252 135.162 24.539 135.162 25.3797C135.162 26.2204 135.336 26.9343 135.684 27.5212C136.033 28.1081 136.476 28.5523 137.014 28.8536C137.552 29.155 138.099 29.3057 138.653 29.3057C139.333 29.3057 139.951 29.155 140.505 28.8536C141.075 28.5523 141.526 28.1081 141.858 27.5212C142.207 26.9343 142.381 26.2204 142.381 25.3797Z"/>
<path d="M147.375 27.4974C147.597 27.8305 147.85 28.1398 148.135 28.4254C148.42 28.7109 148.744 28.9409 149.109 29.1154C149.488 29.274 149.9 29.3533 150.343 29.3533C150.882 29.3533 151.301 29.2344 151.602 28.9964C151.919 28.7426 152.077 28.4016 152.077 27.9733C152.077 27.5926 151.95 27.2753 151.697 27.0215C151.459 26.7518 151.151 26.5298 150.771 26.3553C150.391 26.1649 149.987 25.9904 149.56 25.8318C149.085 25.6414 148.602 25.4194 148.111 25.1656C147.636 24.8959 147.233 24.5549 146.9 24.1424C146.583 23.7141 146.425 23.1827 146.425 22.5482C146.425 21.8978 146.591 21.3585 146.924 20.9302C147.272 20.5019 147.715 20.1847 148.254 19.9785C148.808 19.7722 149.378 19.6691 149.963 19.6691C150.549 19.6691 151.095 19.7643 151.602 19.9547C152.124 20.145 152.583 20.3988 152.979 20.7161C153.375 21.0333 153.684 21.3982 153.905 21.8106L152.386 22.7862C152.085 22.3737 151.705 22.0327 151.246 21.763C150.802 21.4933 150.296 21.3585 149.726 21.3585C149.33 21.3585 148.99 21.4458 148.705 21.6202C148.42 21.7947 148.277 22.0644 148.277 22.4292C148.277 22.7148 148.388 22.9686 148.61 23.1907C148.831 23.4127 149.116 23.611 149.465 23.7855C149.813 23.96 150.177 24.1266 150.557 24.2852C151.19 24.539 151.768 24.8166 152.291 25.118C152.813 25.4035 153.225 25.7525 153.525 26.1649C153.842 26.5773 154 27.1087 154 27.7591C154 28.7109 153.652 29.504 152.955 30.1385C152.275 30.773 151.372 31.0903 150.248 31.0903C149.52 31.0903 148.863 30.9634 148.277 30.7096C147.692 30.4399 147.193 30.0989 146.781 29.6864C146.386 29.274 146.085 28.8536 145.879 28.4254L147.375 27.4974Z"/>
</mask>
<path d="M40.2348 22.5244C40.2348 23.7776 40.504 24.8959 41.0422 25.8794C41.5963 26.8629 42.3483 27.6401 43.2981 28.2112C44.248 28.7823 45.3245 29.0678 46.5276 29.0678C47.7466 29.0678 48.8231 28.7823 49.7571 28.2112C50.707 27.6401 51.451 26.8629 51.9893 25.8794C52.5434 24.8959 52.8204 23.7776 52.8204 22.5244C52.8204 21.2713 52.5434 20.1529 51.9893 19.1695C51.451 18.186 50.707 17.4087 49.7571 16.8376C48.8231 16.2666 47.7466 15.9811 46.5276 15.9811C45.3245 15.9811 44.248 16.2666 43.2981 16.8376C42.3483 17.4087 41.5963 18.186 41.0422 19.1695C40.504 20.1529 40.2348 21.2713 40.2348 22.5244ZM38.0977 22.5244C38.0977 21.303 38.3035 20.1767 38.7151 19.1457C39.1425 18.0987 39.7362 17.1945 40.496 16.4331C41.2559 15.6559 42.1504 15.0531 43.1794 14.6248C44.2084 14.1806 45.3245 13.9586 46.5276 13.9586C47.7466 13.9586 48.8627 14.1806 49.8759 14.6248C50.9049 15.0531 51.7993 15.6559 52.5592 16.4331C53.3191 17.1945 53.9048 18.0987 54.3164 19.1457C54.7439 20.1767 54.9576 21.303 54.9576 22.5244C54.9576 23.73 54.7439 24.8562 54.3164 25.9032C53.9048 26.9501 53.3191 27.8622 52.5592 28.6395C51.7993 29.4009 50.9049 30.0037 49.8759 30.4479C48.8627 30.8761 47.7466 31.0903 46.5276 31.0903C45.3245 31.0903 44.2084 30.8761 43.1794 30.4479C42.1504 30.0037 41.2559 29.4009 40.496 28.6395C39.7362 27.8622 39.1425 26.9501 38.7151 25.9032C38.3035 24.8562 38.0977 23.73 38.0977 22.5244Z" fill="white"/>
<path d="M66.7046 19.9071L59.5807 36.087H57.4435L60.4356 29.3057L56.2562 19.9071H58.5121L61.9791 28.4729L61.1955 28.3778L64.5675 19.9071H66.7046Z" fill="white"/>
<path d="M68.947 27.4974C69.1686 27.8305 69.4219 28.1398 69.7069 28.4254C69.9918 28.7109 70.3164 28.9409 70.6805 29.1154C71.0604 29.274 71.472 29.3533 71.9153 29.3533C72.4536 29.3533 72.8731 29.2344 73.1739 28.9964C73.4905 28.7426 73.6488 28.4016 73.6488 27.9733C73.6488 27.5926 73.5221 27.2753 73.2688 27.0215C73.0314 26.7518 72.7227 26.5298 72.3427 26.3553C71.9628 26.1649 71.5591 25.9904 71.1317 25.8318C70.6567 25.6414 70.1739 25.4194 69.6831 25.1656C69.2082 24.8959 68.8045 24.5549 68.4721 24.1424C68.1555 23.7141 67.9971 23.1827 67.9971 22.5482C67.9971 21.8978 68.1634 21.3585 68.4958 20.9302C68.8441 20.5019 69.2874 20.1847 69.8256 19.9785C70.3797 19.7722 70.9496 19.6691 71.5354 19.6691C72.1211 19.6691 72.6673 19.7643 73.1739 19.9547C73.6963 20.145 74.1554 20.3988 74.5512 20.7161C74.9469 21.0333 75.2556 21.3982 75.4773 21.8106L73.9575 22.7862C73.6567 22.3737 73.2768 22.0327 72.8177 21.763C72.3744 21.4933 71.8678 21.3585 71.2979 21.3585C70.9021 21.3585 70.5618 21.4458 70.2768 21.6202C69.9918 21.7947 69.8494 22.0644 69.8494 22.4292C69.8494 22.7148 69.9602 22.9686 70.1818 23.1907C70.4034 23.4127 70.6884 23.611 71.0367 23.7855C71.385 23.96 71.7491 24.1266 72.129 24.2852C72.7623 24.539 73.3401 24.8166 73.8625 25.118C74.3849 25.4035 74.7965 25.7525 75.0973 26.1649C75.4139 26.5773 75.5722 27.1087 75.5722 27.7591C75.5722 28.7109 75.224 29.504 74.5274 30.1385C73.8467 30.773 72.9443 31.0903 71.8203 31.0903C71.0921 31.0903 70.4351 30.9634 69.8494 30.7096C69.2636 30.4399 68.7649 30.0989 68.3533 29.6864C67.9576 29.274 67.6568 28.8536 67.451 28.4254L68.947 27.4974Z" fill="white"/>
<path d="M76.411 19.9071H81.8726V21.6916H76.411V19.9071ZM78.192 16.1H80.0917V30.8524H78.192V16.1Z" fill="white"/>
<path d="M88.0048 31.0903C86.9916 31.0903 86.0892 30.8524 85.2977 30.3765C84.522 29.8847 83.9125 29.2106 83.4692 28.354C83.0418 27.4974 82.8281 26.506 82.8281 25.3797C82.8281 24.2376 83.0497 23.2382 83.493 22.3817C83.9521 21.5251 84.5853 20.8588 85.3927 20.383C86.2159 19.9071 87.1657 19.6691 88.2422 19.6691C89.3188 19.6691 90.2369 19.8991 90.9968 20.3592C91.7725 20.8033 92.3662 21.4458 92.7778 22.2865C93.1894 23.1272 93.3952 24.1266 93.3952 25.2845C93.3952 25.3956 93.3873 25.5145 93.3715 25.6414C93.3715 25.7525 93.3715 25.8239 93.3715 25.8556H84.0391V24.2376H91.8754L91.1156 25.3321C91.1631 25.2528 91.2105 25.1338 91.258 24.9752C91.3055 24.8007 91.3293 24.658 91.3293 24.5469C91.3293 23.8965 91.1947 23.3334 90.9256 22.8575C90.6723 22.3817 90.3161 22.0089 89.857 21.7392C89.3979 21.4696 88.8597 21.3347 88.2422 21.3347C87.514 21.3347 86.8887 21.4933 86.3663 21.8106C85.8597 22.112 85.4639 22.5561 85.179 23.1431C84.9098 23.7141 84.7674 24.42 84.7515 25.2607C84.7515 26.1173 84.8861 26.847 85.1552 27.4498C85.4243 28.0526 85.8201 28.5126 86.3425 28.8299C86.865 29.1471 87.4982 29.3057 88.2422 29.3057C88.9863 29.3057 89.6433 29.1471 90.2132 28.8299C90.7831 28.4967 91.266 27.9971 91.6617 27.3308L93.2052 28.3064C92.6353 29.2264 91.915 29.9244 91.0443 30.4003C90.1895 30.8603 89.1763 31.0903 88.0048 31.0903Z" fill="white"/>
<path d="M97.8987 19.9071V30.8524H95.999V19.9071H97.8987ZM101.199 22.001C100.946 21.8106 100.717 21.6758 100.511 21.5965C100.305 21.5013 100.044 21.4537 99.7272 21.4537C99.2522 21.4537 98.8802 21.5727 98.6111 21.8106C98.3419 22.0485 98.152 22.3737 98.0412 22.7862C97.9462 23.1986 97.8987 23.6665 97.8987 24.19H97.0438C97.0438 23.3176 97.1942 22.5482 97.495 21.882C97.8116 21.1999 98.2153 20.6606 98.7061 20.264C99.1968 19.8674 99.6955 19.6691 100.202 19.6691C100.598 19.6691 100.962 19.7247 101.294 19.8357C101.643 19.9309 101.959 20.1292 102.244 20.4305L101.199 22.001Z" fill="white"/>
<path d="M111.377 14.1965H113.395V28.9488H119.925V30.8524H111.377V14.1965Z" fill="white"/>
<path d="M122.803 27.4736C122.803 27.886 122.898 28.2429 123.088 28.5443C123.294 28.8457 123.571 29.0757 123.919 29.2344C124.283 29.3771 124.695 29.4485 125.154 29.4485C125.74 29.4485 126.262 29.3295 126.721 29.0916C127.196 28.8536 127.568 28.5205 127.838 28.0922C128.122 27.6481 128.265 27.1405 128.265 26.5694L128.645 27.9971C128.645 28.695 128.431 29.274 128.004 29.734C127.592 30.194 127.078 30.5351 126.46 30.7572C125.859 30.9793 125.257 31.0903 124.655 31.0903C123.991 31.0903 123.365 30.9555 122.78 30.6858C122.21 30.4003 121.751 29.9958 121.402 29.4723C121.054 28.9488 120.88 28.3143 120.88 27.5688C120.88 26.506 121.252 25.6573 121.996 25.0228C122.756 24.3724 123.809 24.0472 125.154 24.0472C125.946 24.0472 126.603 24.1424 127.125 24.3328C127.663 24.5073 128.091 24.7135 128.407 24.9514C128.724 25.1735 128.938 25.3559 129.049 25.4987V26.617C128.494 26.2363 127.925 25.9666 127.339 25.808C126.753 25.6335 126.128 25.5463 125.463 25.5463C124.845 25.5463 124.339 25.6256 123.943 25.7842C123.563 25.9428 123.278 26.1649 123.088 26.4504C122.898 26.736 122.803 27.077 122.803 27.4736ZM122.518 22.4292L121.592 21.0254C122.004 20.724 122.566 20.4226 123.278 20.1212C124.006 19.8198 124.877 19.6691 125.89 19.6691C126.745 19.6691 127.489 19.804 128.122 20.0736C128.772 20.3274 129.27 20.7002 129.618 21.192C129.983 21.6837 130.165 22.2865 130.165 23.0003V30.8524H128.265V23.262C128.265 22.8813 128.202 22.572 128.075 22.3341C127.948 22.0803 127.766 21.882 127.529 21.7392C127.307 21.5965 127.046 21.4933 126.745 21.4299C126.444 21.3664 126.128 21.3347 125.795 21.3347C125.257 21.3347 124.766 21.3982 124.323 21.5251C123.896 21.652 123.531 21.8027 123.231 21.9772C122.93 22.1516 122.692 22.3023 122.518 22.4292Z" fill="white"/>
<path d="M135.162 12.293V30.8524H133.262V12.293H135.162ZM144.304 25.3797C144.304 26.5536 144.059 27.5688 143.568 28.4254C143.077 29.2819 142.42 29.9402 141.597 30.4003C140.79 30.8603 139.887 31.0903 138.89 31.0903C137.988 31.0903 137.188 30.8603 136.492 30.4003C135.811 29.9402 135.273 29.2819 134.877 28.4254C134.497 27.5688 134.307 26.5536 134.307 25.3797C134.307 24.19 134.497 23.1748 134.877 22.3341C135.273 21.4775 135.811 20.8192 136.492 20.3592C137.188 19.8991 137.988 19.6691 138.89 19.6691C139.887 19.6691 140.79 19.8991 141.597 20.3592C142.42 20.8192 143.077 21.4775 143.568 22.3341C144.059 23.1748 144.304 24.19 144.304 25.3797ZM142.381 25.3797C142.381 24.539 142.207 23.8252 141.858 23.2382C141.526 22.6513 141.075 22.2072 140.505 21.9058C139.951 21.6044 139.333 21.4537 138.653 21.4537C138.099 21.4537 137.552 21.6044 137.014 21.9058C136.476 22.2072 136.033 22.6513 135.684 23.2382C135.336 23.8252 135.162 24.539 135.162 25.3797C135.162 26.2204 135.336 26.9343 135.684 27.5212C136.033 28.1081 136.476 28.5523 137.014 28.8536C137.552 29.155 138.099 29.3057 138.653 29.3057C139.333 29.3057 139.951 29.155 140.505 28.8536C141.075 28.5523 141.526 28.1081 141.858 27.5212C142.207 26.9343 142.381 26.2204 142.381 25.3797Z" fill="white"/>
<path d="M147.375 27.4974C147.597 27.8305 147.85 28.1398 148.135 28.4254C148.42 28.7109 148.744 28.9409 149.109 29.1154C149.488 29.274 149.9 29.3533 150.343 29.3533C150.882 29.3533 151.301 29.2344 151.602 28.9964C151.919 28.7426 152.077 28.4016 152.077 27.9733C152.077 27.5926 151.95 27.2753 151.697 27.0215C151.459 26.7518 151.151 26.5298 150.771 26.3553C150.391 26.1649 149.987 25.9904 149.56 25.8318C149.085 25.6414 148.602 25.4194 148.111 25.1656C147.636 24.8959 147.233 24.5549 146.9 24.1424C146.583 23.7141 146.425 23.1827 146.425 22.5482C146.425 21.8978 146.591 21.3585 146.924 20.9302C147.272 20.5019 147.715 20.1847 148.254 19.9785C148.808 19.7722 149.378 19.6691 149.963 19.6691C150.549 19.6691 151.095 19.7643 151.602 19.9547C152.124 20.145 152.583 20.3988 152.979 20.7161C153.375 21.0333 153.684 21.3982 153.905 21.8106L152.386 22.7862C152.085 22.3737 151.705 22.0327 151.246 21.763C150.802 21.4933 150.296 21.3585 149.726 21.3585C149.33 21.3585 148.99 21.4458 148.705 21.6202C148.42 21.7947 148.277 22.0644 148.277 22.4292C148.277 22.7148 148.388 22.9686 148.61 23.1907C148.831 23.4127 149.116 23.611 149.465 23.7855C149.813 23.96 150.177 24.1266 150.557 24.2852C151.19 24.539 151.768 24.8166 152.291 25.118C152.813 25.4035 153.225 25.7525 153.525 26.1649C153.842 26.5773 154 27.1087 154 27.7591C154 28.7109 153.652 29.504 152.955 30.1385C152.275 30.773 151.372 31.0903 150.248 31.0903C149.52 31.0903 148.863 30.9634 148.277 30.7096C147.692 30.4399 147.193 30.0989 146.781 29.6864C146.386 29.274 146.085 28.8536 145.879 28.4254L147.375 27.4974Z" fill="white"/>
<path d="M40.2348 22.5244C40.2348 23.7776 40.504 24.8959 41.0422 25.8794C41.5963 26.8629 42.3483 27.6401 43.2981 28.2112C44.248 28.7823 45.3245 29.0678 46.5276 29.0678C47.7466 29.0678 48.8231 28.7823 49.7571 28.2112C50.707 27.6401 51.451 26.8629 51.9893 25.8794C52.5434 24.8959 52.8204 23.7776 52.8204 22.5244C52.8204 21.2713 52.5434 20.1529 51.9893 19.1695C51.451 18.186 50.707 17.4087 49.7571 16.8376C48.8231 16.2666 47.7466 15.9811 46.5276 15.9811C45.3245 15.9811 44.248 16.2666 43.2981 16.8376C42.3483 17.4087 41.5963 18.186 41.0422 19.1695C40.504 20.1529 40.2348 21.2713 40.2348 22.5244ZM38.0977 22.5244C38.0977 21.303 38.3035 20.1767 38.7151 19.1457C39.1425 18.0987 39.7362 17.1945 40.496 16.4331C41.2559 15.6559 42.1504 15.0531 43.1794 14.6248C44.2084 14.1806 45.3245 13.9586 46.5276 13.9586C47.7466 13.9586 48.8627 14.1806 49.8759 14.6248C50.9049 15.0531 51.7993 15.6559 52.5592 16.4331C53.3191 17.1945 53.9048 18.0987 54.3164 19.1457C54.7439 20.1767 54.9576 21.303 54.9576 22.5244C54.9576 23.73 54.7439 24.8562 54.3164 25.9032C53.9048 26.9501 53.3191 27.8622 52.5592 28.6395C51.7993 29.4009 50.9049 30.0037 49.8759 30.4479C48.8627 30.8761 47.7466 31.0903 46.5276 31.0903C45.3245 31.0903 44.2084 30.8761 43.1794 30.4479C42.1504 30.0037 41.2559 29.4009 40.496 28.6395C39.7362 27.8622 39.1425 26.9501 38.7151 25.9032C38.3035 24.8562 38.0977 23.73 38.0977 22.5244Z" stroke="white" stroke-width="0.247184" mask="url(#path-3-outside-1_308_2140)"/>
<path d="M66.7046 19.9071L59.5807 36.087H57.4435L60.4356 29.3057L56.2562 19.9071H58.5121L61.9791 28.4729L61.1955 28.3778L64.5675 19.9071H66.7046Z" stroke="white" stroke-width="0.247184" mask="url(#path-3-outside-1_308_2140)"/>
<path d="M68.947 27.4974C69.1686 27.8305 69.4219 28.1398 69.7069 28.4254C69.9918 28.7109 70.3164 28.9409 70.6805 29.1154C71.0604 29.274 71.472 29.3533 71.9153 29.3533C72.4536 29.3533 72.8731 29.2344 73.1739 28.9964C73.4905 28.7426 73.6488 28.4016 73.6488 27.9733C73.6488 27.5926 73.5221 27.2753 73.2688 27.0215C73.0314 26.7518 72.7227 26.5298 72.3427 26.3553C71.9628 26.1649 71.5591 25.9904 71.1317 25.8318C70.6567 25.6414 70.1739 25.4194 69.6831 25.1656C69.2082 24.8959 68.8045 24.5549 68.4721 24.1424C68.1555 23.7141 67.9971 23.1827 67.9971 22.5482C67.9971 21.8978 68.1634 21.3585 68.4958 20.9302C68.8441 20.5019 69.2874 20.1847 69.8256 19.9785C70.3797 19.7722 70.9496 19.6691 71.5354 19.6691C72.1211 19.6691 72.6673 19.7643 73.1739 19.9547C73.6963 20.145 74.1554 20.3988 74.5512 20.7161C74.9469 21.0333 75.2556 21.3982 75.4773 21.8106L73.9575 22.7862C73.6567 22.3737 73.2768 22.0327 72.8177 21.763C72.3744 21.4933 71.8678 21.3585 71.2979 21.3585C70.9021 21.3585 70.5618 21.4458 70.2768 21.6202C69.9918 21.7947 69.8494 22.0644 69.8494 22.4292C69.8494 22.7148 69.9602 22.9686 70.1818 23.1907C70.4034 23.4127 70.6884 23.611 71.0367 23.7855C71.385 23.96 71.7491 24.1266 72.129 24.2852C72.7623 24.539 73.3401 24.8166 73.8625 25.118C74.3849 25.4035 74.7965 25.7525 75.0973 26.1649C75.4139 26.5773 75.5722 27.1087 75.5722 27.7591C75.5722 28.7109 75.224 29.504 74.5274 30.1385C73.8467 30.773 72.9443 31.0903 71.8203 31.0903C71.0921 31.0903 70.4351 30.9634 69.8494 30.7096C69.2636 30.4399 68.7649 30.0989 68.3533 29.6864C67.9576 29.274 67.6568 28.8536 67.451 28.4254L68.947 27.4974Z" stroke="white" stroke-width="0.247184" mask="url(#path-3-outside-1_308_2140)"/>
<path d="M76.411 19.9071H81.8726V21.6916H76.411V19.9071ZM78.192 16.1H80.0917V30.8524H78.192V16.1Z" stroke="white" stroke-width="0.247184" mask="url(#path-3-outside-1_308_2140)"/>
<path d="M88.0048 31.0903C86.9916 31.0903 86.0892 30.8524 85.2977 30.3765C84.522 29.8847 83.9125 29.2106 83.4692 28.354C83.0418 27.4974 82.8281 26.506 82.8281 25.3797C82.8281 24.2376 83.0497 23.2382 83.493 22.3817C83.9521 21.5251 84.5853 20.8588 85.3927 20.383C86.2159 19.9071 87.1657 19.6691 88.2422 19.6691C89.3188 19.6691 90.2369 19.8991 90.9968 20.3592C91.7725 20.8033 92.3662 21.4458 92.7778 22.2865C93.1894 23.1272 93.3952 24.1266 93.3952 25.2845C93.3952 25.3956 93.3873 25.5145 93.3715 25.6414C93.3715 25.7525 93.3715 25.8239 93.3715 25.8556H84.0391V24.2376H91.8754L91.1156 25.3321C91.1631 25.2528 91.2105 25.1338 91.258 24.9752C91.3055 24.8007 91.3293 24.658 91.3293 24.5469C91.3293 23.8965 91.1947 23.3334 90.9256 22.8575C90.6723 22.3817 90.3161 22.0089 89.857 21.7392C89.3979 21.4696 88.8597 21.3347 88.2422 21.3347C87.514 21.3347 86.8887 21.4933 86.3663 21.8106C85.8597 22.112 85.4639 22.5561 85.179 23.1431C84.9098 23.7141 84.7674 24.42 84.7515 25.2607C84.7515 26.1173 84.8861 26.847 85.1552 27.4498C85.4243 28.0526 85.8201 28.5126 86.3425 28.8299C86.865 29.1471 87.4982 29.3057 88.2422 29.3057C88.9863 29.3057 89.6433 29.1471 90.2132 28.8299C90.7831 28.4967 91.266 27.9971 91.6617 27.3308L93.2052 28.3064C92.6353 29.2264 91.915 29.9244 91.0443 30.4003C90.1895 30.8603 89.1763 31.0903 88.0048 31.0903Z" stroke="white" stroke-width="0.247184" mask="url(#path-3-outside-1_308_2140)"/>
<path d="M97.8987 19.9071V30.8524H95.999V19.9071H97.8987ZM101.199 22.001C100.946 21.8106 100.717 21.6758 100.511 21.5965C100.305 21.5013 100.044 21.4537 99.7272 21.4537C99.2522 21.4537 98.8802 21.5727 98.6111 21.8106C98.3419 22.0485 98.152 22.3737 98.0412 22.7862C97.9462 23.1986 97.8987 23.6665 97.8987 24.19H97.0438C97.0438 23.3176 97.1942 22.5482 97.495 21.882C97.8116 21.1999 98.2153 20.6606 98.7061 20.264C99.1968 19.8674 99.6955 19.6691 100.202 19.6691C100.598 19.6691 100.962 19.7247 101.294 19.8357C101.643 19.9309 101.959 20.1292 102.244 20.4305L101.199 22.001Z" stroke="white" stroke-width="0.247184" mask="url(#path-3-outside-1_308_2140)"/>
<path d="M111.377 14.1965H113.395V28.9488H119.925V30.8524H111.377V14.1965Z" stroke="white" stroke-width="0.247184" mask="url(#path-3-outside-1_308_2140)"/>
<path d="M122.803 27.4736C122.803 27.886 122.898 28.2429 123.088 28.5443C123.294 28.8457 123.571 29.0757 123.919 29.2344C124.283 29.3771 124.695 29.4485 125.154 29.4485C125.74 29.4485 126.262 29.3295 126.721 29.0916C127.196 28.8536 127.568 28.5205 127.838 28.0922C128.122 27.6481 128.265 27.1405 128.265 26.5694L128.645 27.9971C128.645 28.695 128.431 29.274 128.004 29.734C127.592 30.194 127.078 30.5351 126.46 30.7572C125.859 30.9793 125.257 31.0903 124.655 31.0903C123.991 31.0903 123.365 30.9555 122.78 30.6858C122.21 30.4003 121.751 29.9958 121.402 29.4723C121.054 28.9488 120.88 28.3143 120.88 27.5688C120.88 26.506 121.252 25.6573 121.996 25.0228C122.756 24.3724 123.809 24.0472 125.154 24.0472C125.946 24.0472 126.603 24.1424 127.125 24.3328C127.663 24.5073 128.091 24.7135 128.407 24.9514C128.724 25.1735 128.938 25.3559 129.049 25.4987V26.617C128.494 26.2363 127.925 25.9666 127.339 25.808C126.753 25.6335 126.128 25.5463 125.463 25.5463C124.845 25.5463 124.339 25.6256 123.943 25.7842C123.563 25.9428 123.278 26.1649 123.088 26.4504C122.898 26.736 122.803 27.077 122.803 27.4736ZM122.518 22.4292L121.592 21.0254C122.004 20.724 122.566 20.4226 123.278 20.1212C124.006 19.8198 124.877 19.6691 125.89 19.6691C126.745 19.6691 127.489 19.804 128.122 20.0736C128.772 20.3274 129.27 20.7002 129.618 21.192C129.983 21.6837 130.165 22.2865 130.165 23.0003V30.8524H128.265V23.262C128.265 22.8813 128.202 22.572 128.075 22.3341C127.948 22.0803 127.766 21.882 127.529 21.7392C127.307 21.5965 127.046 21.4933 126.745 21.4299C126.444 21.3664 126.128 21.3347 125.795 21.3347C125.257 21.3347 124.766 21.3982 124.323 21.5251C123.896 21.652 123.531 21.8027 123.231 21.9772C122.93 22.1516 122.692 22.3023 122.518 22.4292Z" stroke="white" stroke-width="0.247184" mask="url(#path-3-outside-1_308_2140)"/>
<path d="M135.162 12.293V30.8524H133.262V12.293H135.162ZM144.304 25.3797C144.304 26.5536 144.059 27.5688 143.568 28.4254C143.077 29.2819 142.42 29.9402 141.597 30.4003C140.79 30.8603 139.887 31.0903 138.89 31.0903C137.988 31.0903 137.188 30.8603 136.492 30.4003C135.811 29.9402 135.273 29.2819 134.877 28.4254C134.497 27.5688 134.307 26.5536 134.307 25.3797C134.307 24.19 134.497 23.1748 134.877 22.3341C135.273 21.4775 135.811 20.8192 136.492 20.3592C137.188 19.8991 137.988 19.6691 138.89 19.6691C139.887 19.6691 140.79 19.8991 141.597 20.3592C142.42 20.8192 143.077 21.4775 143.568 22.3341C144.059 23.1748 144.304 24.19 144.304 25.3797ZM142.381 25.3797C142.381 24.539 142.207 23.8252 141.858 23.2382C141.526 22.6513 141.075 22.2072 140.505 21.9058C139.951 21.6044 139.333 21.4537 138.653 21.4537C138.099 21.4537 137.552 21.6044 137.014 21.9058C136.476 22.2072 136.033 22.6513 135.684 23.2382C135.336 23.8252 135.162 24.539 135.162 25.3797C135.162 26.2204 135.336 26.9343 135.684 27.5212C136.033 28.1081 136.476 28.5523 137.014 28.8536C137.552 29.155 138.099 29.3057 138.653 29.3057C139.333 29.3057 139.951 29.155 140.505 28.8536C141.075 28.5523 141.526 28.1081 141.858 27.5212C142.207 26.9343 142.381 26.2204 142.381 25.3797Z" stroke="white" stroke-width="0.247184" mask="url(#path-3-outside-1_308_2140)"/>
<path d="M147.375 27.4974C147.597 27.8305 147.85 28.1398 148.135 28.4254C148.42 28.7109 148.744 28.9409 149.109 29.1154C149.488 29.274 149.9 29.3533 150.343 29.3533C150.882 29.3533 151.301 29.2344 151.602 28.9964C151.919 28.7426 152.077 28.4016 152.077 27.9733C152.077 27.5926 151.95 27.2753 151.697 27.0215C151.459 26.7518 151.151 26.5298 150.771 26.3553C150.391 26.1649 149.987 25.9904 149.56 25.8318C149.085 25.6414 148.602 25.4194 148.111 25.1656C147.636 24.8959 147.233 24.5549 146.9 24.1424C146.583 23.7141 146.425 23.1827 146.425 22.5482C146.425 21.8978 146.591 21.3585 146.924 20.9302C147.272 20.5019 147.715 20.1847 148.254 19.9785C148.808 19.7722 149.378 19.6691 149.963 19.6691C150.549 19.6691 151.095 19.7643 151.602 19.9547C152.124 20.145 152.583 20.3988 152.979 20.7161C153.375 21.0333 153.684 21.3982 153.905 21.8106L152.386 22.7862C152.085 22.3737 151.705 22.0327 151.246 21.763C150.802 21.4933 150.296 21.3585 149.726 21.3585C149.33 21.3585 148.99 21.4458 148.705 21.6202C148.42 21.7947 148.277 22.0644 148.277 22.4292C148.277 22.7148 148.388 22.9686 148.61 23.1907C148.831 23.4127 149.116 23.611 149.465 23.7855C149.813 23.96 150.177 24.1266 150.557 24.2852C151.19 24.539 151.768 24.8166 152.291 25.118C152.813 25.4035 153.225 25.7525 153.525 26.1649C153.842 26.5773 154 27.1087 154 27.7591C154 28.7109 153.652 29.504 152.955 30.1385C152.275 30.773 151.372 31.0903 150.248 31.0903C149.52 31.0903 148.863 30.9634 148.277 30.7096C147.692 30.4399 147.193 30.0989 146.781 29.6864C146.386 29.274 146.085 28.8536 145.879 28.4254L147.375 27.4974Z" stroke="white" stroke-width="0.247184" mask="url(#path-3-outside-1_308_2140)"/>
</svg>
