<svg width="25" height="21" viewBox="0 0 25 21" fill="none" xmlns="http://www.w3.org/2000/svg">
<path d="M1.48422 9.22755C1.48422 9.22755 12.1913 4.83278 15.9047 3.28528C17.3283 2.66633 22.1557 0.685514 22.1557 0.685514C22.1557 0.685514 24.3838 -0.181017 24.1981 1.9235C24.1362 2.79012 23.6411 5.8231 23.146 9.10376C22.4033 13.7462 21.5987 18.8218 21.5987 18.8218C21.5987 18.8218 21.4749 20.2456 20.4228 20.4931C19.3707 20.7407 17.6376 19.6266 17.3283 19.3789C17.0806 19.1933 12.6864 16.4078 11.0773 15.046C10.644 14.6747 10.1489 13.9319 11.1391 13.0653C13.3672 11.0226 16.0285 8.48481 17.6376 6.87545C18.3804 6.13262 19.123 4.39947 16.0285 6.50399C11.6343 9.53707 7.30195 12.3844 7.30195 12.3844C7.30195 12.3844 6.31167 13.0034 4.45497 12.4463C2.59819 11.8892 0.43201 11.1464 0.43201 11.1464C0.43201 11.1464 -1.05328 10.218 1.48422 9.22755Z" fill="#8E8E8E"/>
</svg>
