<svg width="36" height="36" viewBox="0 0 36 36" fill="none" xmlns="http://www.w3.org/2000/svg">
<path d="M6.71484 7.31243H29.2148C29.4777 7.31231 29.7402 7.32898 30.0009 7.36235C29.9126 6.74204 29.6995 6.14604 29.3746 5.6103C29.0496 5.07456 28.6196 4.61017 28.1103 4.24512C27.601 3.88008 27.0231 3.62195 26.4114 3.48629C25.7997 3.35063 25.1669 3.34026 24.551 3.45579L6.04688 6.61493H6.02578C4.86427 6.83705 3.83137 7.49421 3.13805 8.4522C4.18261 7.70922 5.433 7.31078 6.71484 7.31243ZM29.2148 8.99993H6.71484C5.52177 9.00124 4.37793 9.47576 3.5343 10.3194C2.69067 11.163 2.21615 12.3069 2.21484 13.4999V26.9999C2.21615 28.193 2.69067 29.3368 3.5343 30.1805C4.37793 31.0241 5.52177 31.4986 6.71484 31.4999H29.2148C30.4079 31.4986 31.5518 31.0241 32.3954 30.1805C33.239 29.3368 33.7135 28.193 33.7148 26.9999V13.4999C33.7135 12.3069 33.239 11.163 32.3954 10.3194C31.5518 9.47576 30.4079 9.00124 29.2148 8.99993ZM25.875 22.4999C25.43 22.4999 24.995 22.368 24.625 22.1207C24.255 21.8735 23.9666 21.5221 23.7963 21.111C23.626 20.6998 23.5814 20.2474 23.6682 19.811C23.755 19.3745 23.9693 18.9736 24.284 18.6589C24.5987 18.3443 24.9996 18.13 25.436 18.0432C25.8725 17.9563 26.3249 18.0009 26.736 18.1712C27.1472 18.3415 27.4986 18.6299 27.7458 18.9999C27.993 19.3699 28.125 19.8049 28.125 20.2499C28.125 20.8467 27.8879 21.419 27.466 21.8409C27.044 22.2629 26.4717 22.4999 25.875 22.4999Z" fill="#979797"/>
<path d="M2.25 18.2461V11.25C2.25 9.72633 3.09375 7.17187 6.02227 6.61852C8.50781 6.15234 10.9688 6.15234 10.9688 6.15234C10.9688 6.15234 12.5859 7.27734 11.25 7.27734C9.91406 7.27734 9.94922 9 11.25 9C12.5508 9 11.25 10.6523 11.25 10.6523L6.01172 16.5938L2.25 18.2461Z" fill="#979797"/>
</svg>
