<svg width="888" height="887" viewBox="0 0 888 887" fill="none" xmlns="http://www.w3.org/2000/svg">
    <g filter="url(#filter0_f_1076_2103)">
        <g clip-path="url(#clip0_1076_2103)">
            <rect x="264.361" y="264" width="359" height="359" rx="170" fill="#40414E" />
            <g filter="url(#filter1_f_1076_2103)">
                <ellipse cx="81.6992" cy="155.475" rx="81.6992" ry="155.475"
                    transform="matrix(-0.645966 0.765166 0.412867 0.909632 215.792 165.223)" fill="white" />
            </g>
            <g filter="url(#filter2_f_1076_2103)">
                <ellipse cx="98.2923" cy="199.029" rx="98.2923" ry="199.029"
                    transform="matrix(0.303059 0.952118 0.769149 -0.641217 339.797 342.668)" fill="#00A3FF" />
            </g>
            <g filter="url(#filter3_f_1076_2103)">
                <ellipse cx="96.9453" cy="203.556" rx="96.9453" ry="203.556"
                    transform="matrix(-0.339589 0.941515 0.729863 0.681553 545.678 417.414)" fill="white" />
            </g>
            <g filter="url(#filter4_f_1076_2103)">
                <ellipse cx="68.3019" cy="89.5875" rx="68.3019" ry="89.5875"
                    transform="matrix(-0.645966 0.765166 0.412867 0.909632 367.76 440)" fill="#00A3FF" />
            </g>
            <g filter="url(#filter5_f_1076_2103)">
                <ellipse cx="68.3019" cy="177.081" rx="68.3019" ry="177.081"
                    transform="matrix(-0.645966 0.765166 0.412867 0.909632 521.93 529.086)" fill="#545561" />
            </g>
            <g filter="url(#filter6_f_1076_2103)">
                <ellipse cx="73.3049" cy="145.447" rx="73.3049" ry="145.447"
                    transform="matrix(-0.524494 -0.849944 -0.529242 0.849944 315.692 618.566)" fill="#7A7A7A" />
            </g>
            <g style="mix-blend-mode:hard-light">
                <g filter="url(#filter7_f_1076_2103)">
                    <ellipse cx="81.6992" cy="155.475" rx="81.6992" ry="155.475"
                        transform="matrix(-0.645966 0.765166 0.412867 0.909632 215.774 165.223)" fill="white" />
                </g>
                <g filter="url(#filter8_f_1076_2103)">
                    <ellipse cx="81.6992" cy="74.3996" rx="81.6992" ry="74.3996"
                        transform="matrix(-0.645966 0.765166 0.412867 0.909632 323.086 342.137)" fill="black" />
                </g>
                <g filter="url(#filter9_f_1076_2103)">
                    <ellipse cx="181.438" cy="248.237" rx="181.438" ry="248.237"
                        transform="matrix(0.161098 0.986481 0.919023 -0.396774 250.544 167.695)" fill="#CFD0DA" />
                </g>
                <g filter="url(#filter10_f_1076_2103)">
                    <ellipse cx="68.3019" cy="132.553" rx="68.3019" ry="132.553"
                        transform="matrix(-0.645966 0.765166 0.412867 0.909632 367.755 440)" fill="white" />
                </g>
                <g filter="url(#filter11_f_1076_2103)">
                    <ellipse cx="68.3019" cy="177.081" rx="68.3019" ry="177.081"
                        transform="matrix(-0.645966 0.765166 0.412867 0.909632 446.478 529.09)" fill="#545561" />
                </g>
                <g filter="url(#filter12_f_1076_2103)">
                    <ellipse cx="73.3049" cy="177.988" rx="73.3049" ry="177.988"
                        transform="matrix(-0.524494 -0.849944 -0.529242 0.849944 350.135 563.246)" fill="black" />
                </g>
            </g>
        </g>
    </g>
    <g clip-path="url(#clip1_1076_2103)">
        <rect x="264" y="241" width="260.599" height="493.925" rx="27.878" transform="rotate(-15.7269 264 241)"
            fill="black" />
        <rect x="264.748" y="241.419" width="259.386" height="492.713" rx="27.2719"
            transform="rotate(-15.7269 264.748 241.419)" stroke="white" stroke-opacity="0.48" stroke-width="1.21209" />
        <g clip-path="url(#clip2_1076_2103)">
            <rect x="275.798" y="247.121" width="241.811" height="241.811" rx="24.2417"
                transform="rotate(-15.7269 275.798 247.121)" fill="#40414E" />
            <g filter="url(#filter13_f_1076_2103)">
                <ellipse cx="49.5132" cy="94.2244" rx="49.5132" ry="94.2244"
                    transform="matrix(-0.414384 0.911613 0.643969 0.763671 231.239 197.48)" fill="white" />
            </g>
            <g filter="url(#filter14_f_1076_2103)">
                <ellipse cx="59.5694" cy="120.62" rx="59.5694" ry="120.62"
                    transform="matrix(0.549788 0.834331 0.566552 -0.825692 332.726 280.621)" fill="#2FB4FF" />
            </g>
            <g filter="url(#filter15_f_1076_2103)">
                <ellipse cx="58.753" cy="123.364" rx="58.753" ry="123.364"
                    transform="matrix(-0.0716767 0.998316 0.887276 0.458208 465.107 290.406)" fill="white" />
            </g>
            <g filter="url(#filter16_f_1076_2103)">
                <ellipse cx="41.3939" cy="54.2939" rx="41.3939" ry="54.2939"
                    transform="matrix(-0.414384 0.911613 0.643969 0.763671 365.028 332.809)" fill="#2FB4FF" />
            </g>
            <g filter="url(#filter17_f_1076_2103)">
                <ellipse cx="41.3939" cy="107.319" rx="41.3939" ry="107.319"
                    transform="matrix(-0.414384 0.911613 0.643969 0.763671 469.598 359.449)" fill="#545561" />
            </g>
            <g filter="url(#filter18_f_1076_2103)">
                <ellipse cx="44.426" cy="88.1471" rx="44.426" ry="88.1471"
                    transform="matrix(-0.735239 -0.675961 -0.27905 0.961578 363.986 445.527)" fill="#7A7A7A" />
            </g>
            <g style="mix-blend-mode:hard-light">
                <g filter="url(#filter19_f_1076_2103)">
                    <ellipse cx="49.5132" cy="94.2244" rx="49.5132" ry="94.2244"
                        transform="matrix(-0.414384 0.911613 0.643969 0.763671 231.229 197.484)" fill="white" />
                </g>
                <g filter="url(#filter20_f_1076_2103)">
                    <ellipse cx="49.5132" cy="45.0894" rx="49.5132" ry="45.0894"
                        transform="matrix(-0.414384 0.911613 0.643969 0.763671 322.891 283.059)" fill="black" />
                </g>
                <g filter="url(#filter21_f_1076_2103)">
                    <ellipse cx="109.959" cy="150.442" rx="109.959" ry="150.442"
                        transform="matrix(0.422455 0.905886 0.777073 -0.631024 251.918 193.215)" fill="#CFD0DA" />
                </g>
                <g filter="url(#filter22_f_1076_2103)">
                    <ellipse cx="41.3939" cy="80.3326" rx="41.3939" ry="80.3326"
                        transform="matrix(-0.414384 0.911613 0.643969 0.763671 365.025 332.809)" fill="white" />
                </g>
                <g filter="url(#filter23_f_1076_2103)">
                    <ellipse cx="41.3939" cy="107.319" rx="41.3939" ry="107.319"
                        transform="matrix(-0.414384 0.911613 0.643969 0.763671 425.583 371.852)" fill="#545561" />
                </g>
                <g filter="url(#filter24_f_1076_2103)">
                    <ellipse cx="44.426" cy="107.868" rx="44.426" ry="107.868"
                        transform="matrix(-0.735239 -0.675961 -0.27905 0.961578 374.992 407.602)" fill="black" />
                </g>
            </g>
        </g>
        <path
            d="M363.044 542.082L358.827 503.891L383.733 496.877L384.539 504.38L368.451 508.91L369.347 516.734L383.849 512.65L384.659 520.171L370.157 524.255L371.863 539.599L363.044 542.082ZM422.785 506.186C423.226 510.304 422.855 513.992 421.669 517.248C420.493 520.489 418.71 523.196 416.322 525.368C413.946 527.537 411.167 529.07 407.984 529.966C404.623 530.913 401.502 530.984 398.622 530.18C395.742 529.375 393.341 527.699 391.418 525.151C389.508 522.6 388.316 519.186 387.842 514.91C387.377 510.798 387.729 507.109 388.899 503.845C390.081 500.576 391.87 497.848 394.266 495.661C396.671 493.458 399.477 491.905 402.684 491.002C406.022 490.062 409.126 490.002 411.997 490.822C414.881 491.638 417.279 493.327 419.193 495.891C421.107 498.454 422.304 501.885 422.785 506.186ZM413.675 507.636C413.398 505.24 412.854 503.31 412.044 501.846C411.247 500.378 410.213 499.394 408.944 498.892C407.671 498.379 406.198 498.358 404.523 498.83C402.67 499.351 401.124 500.28 399.885 501.616C398.655 502.937 397.785 504.605 397.276 506.62C396.763 508.623 396.655 510.903 396.952 513.46C397.2 515.89 397.732 517.823 398.547 519.26C399.373 520.694 400.432 521.652 401.721 522.135C403.008 522.606 404.476 522.609 406.127 522.144C407.968 521.626 409.5 520.714 410.721 519.408C411.943 518.103 412.806 516.456 413.311 514.468C413.827 512.477 413.948 510.199 413.675 507.636ZM445.82 479.394L454.621 476.916L457.346 501.549C457.661 504.396 457.289 507.058 456.23 509.535C455.18 511.997 453.558 514.133 451.363 515.943C449.164 517.742 446.527 519.074 443.451 519.94C440.363 520.81 437.602 520.998 435.168 520.504C432.731 519.998 430.755 518.875 429.24 517.135C427.721 515.384 426.798 513.086 426.472 510.243L423.746 485.61L432.565 483.126L435.182 506.963C435.334 508.279 435.746 509.375 436.415 510.25C437.093 511.11 437.964 511.698 439.027 512.014C440.087 512.318 441.27 512.286 442.576 511.918C443.895 511.547 445.022 510.929 445.957 510.063C446.889 509.185 447.575 508.159 448.013 506.984C448.448 505.798 448.589 504.547 448.437 503.231L445.82 479.394ZM489.194 467.18L493.411 505.372L485.928 507.479L469.006 489.516L468.757 489.587L471.177 511.633L462.358 514.116L458.141 475.924L465.731 473.787L482.554 491.739L482.857 491.654L480.393 469.658L489.194 467.18ZM510.632 500.523L496.949 504.376L492.732 466.184L506.005 462.446C509.71 461.403 513.011 461.287 515.906 462.1C518.81 462.898 521.167 464.554 522.978 467.069C524.797 469.57 525.929 472.84 526.375 476.881C526.808 480.784 526.466 484.328 525.351 487.514C524.247 490.696 522.445 493.402 519.945 495.631C517.442 497.849 514.337 499.479 510.632 500.523ZM504.88 494.028L509.067 492.849C511.11 492.274 512.811 491.397 514.172 490.219C515.541 489.026 516.511 487.465 517.083 485.535C517.651 483.593 517.777 481.218 517.461 478.41C517.166 475.724 516.578 473.704 515.697 472.35C514.824 470.981 513.644 470.159 512.157 469.886C510.678 469.597 508.894 469.747 506.804 470.336L502.421 471.57L504.88 494.028ZM531.589 494.621L527.372 456.429L552.813 449.265L553.618 456.768L536.996 461.449L537.892 469.273L553.213 464.958L554.023 472.479L538.702 476.794L539.602 484.635L556.224 479.954L557.03 487.457L531.589 494.621ZM560.546 486.467L556.329 448.275L571.401 444.031C574.132 443.262 576.552 443.113 578.658 443.583C580.762 444.042 582.457 445.078 583.744 446.689C585.028 448.289 585.813 450.395 586.099 453.006C586.405 455.637 586.106 458.035 585.202 460.2C584.308 462.349 582.892 464.196 580.956 465.741C579.031 467.283 576.68 468.445 573.9 469.228L564.369 471.912L563.588 464.633L571.481 462.41C572.799 462.039 573.891 461.546 574.756 460.93C575.617 460.303 576.233 459.553 576.602 458.68C576.98 457.791 577.105 456.756 576.978 455.574C576.838 454.396 576.493 453.487 575.941 452.848C575.397 452.193 574.652 451.8 573.705 451.67C572.767 451.524 571.645 451.635 570.338 452.002L565.991 453.227L569.364 483.984L560.546 486.467ZM579.153 463.23L590.173 478.124L580.553 480.833L569.728 465.884L579.153 463.23ZM461.888 552.202C461.605 550.834 460.956 549.895 459.941 549.386C458.938 548.873 457.576 548.86 455.853 549.345C454.713 549.666 453.781 550.088 453.057 550.613C452.33 551.125 451.808 551.708 451.492 552.361C451.173 553.002 451.049 553.678 451.121 554.388C451.164 554.953 451.328 555.42 451.611 555.789C451.894 556.157 452.289 556.444 452.795 556.647C453.313 556.848 453.92 556.978 454.616 557.038C455.325 557.095 456.102 557.101 456.948 557.055L460.141 556.925C461.986 556.828 463.635 556.928 465.09 557.223C466.553 557.503 467.812 557.989 468.865 558.679C469.915 559.358 470.754 560.243 471.382 561.335C472.01 562.427 472.405 563.739 472.567 565.27C472.836 567.681 472.484 569.915 471.512 571.97C470.551 574.023 469.043 575.812 466.986 577.34C464.942 578.865 462.399 580.055 459.358 580.911C456.318 581.767 453.606 582.037 451.222 581.722C448.847 581.39 446.922 580.426 445.447 578.829C443.972 577.232 443.054 574.952 442.694 571.99L451.121 569.617C451.321 570.83 451.746 571.768 452.394 572.431C453.054 573.091 453.899 573.495 454.927 573.641C455.955 573.787 457.116 573.678 458.411 573.314C459.599 572.979 460.593 572.526 461.393 571.955C462.206 571.38 462.799 570.732 463.173 570.011C463.559 569.287 463.707 568.541 463.619 567.771C463.547 567.06 463.268 566.504 462.783 566.102C462.31 565.697 461.618 565.424 460.707 565.283C459.807 565.139 458.669 565.101 457.29 565.169L453.387 565.306C450.163 565.419 447.546 564.887 445.535 563.71C443.536 562.53 442.373 560.492 442.045 557.598C441.786 555.222 442.166 552.975 443.184 550.855C444.214 548.732 445.749 546.877 447.789 545.289C449.838 543.687 452.252 542.495 455.031 541.712C457.858 540.916 460.368 540.728 462.563 541.148C464.767 541.553 466.54 542.502 467.884 543.996C469.236 545.474 470.052 547.417 470.333 549.824L461.888 552.202ZM476.248 575.655L472.031 537.463L497.472 530.299L498.277 537.802L481.655 542.483L482.551 550.307L497.872 545.992L498.682 553.513L483.361 557.827L484.262 565.669L500.884 560.988L501.689 568.491L476.248 575.655ZM505.205 567.501L500.988 529.309L516.06 525.065C518.792 524.296 521.211 524.146 523.317 524.617C525.421 525.076 527.116 526.111 528.403 527.723C529.687 529.323 530.472 531.428 530.758 534.04C531.064 536.671 530.765 539.069 529.862 541.234C528.967 543.383 527.551 545.23 525.615 546.775C523.691 548.317 521.339 549.479 518.559 550.262L509.028 552.945L508.247 545.666L516.14 543.444C517.458 543.073 518.55 542.579 519.415 541.964C520.277 541.337 520.892 540.587 521.262 539.713C521.639 538.825 521.765 537.79 521.637 536.608C521.497 535.43 521.152 534.521 520.6 533.881C520.057 533.227 519.312 532.834 518.365 532.703C517.426 532.557 516.304 532.668 514.997 533.036L510.65 534.26L514.024 565.018L505.205 567.501ZM523.812 544.264L534.832 559.158L525.212 561.867L514.388 546.918L523.812 544.264ZM541.409 517.927L545.626 556.119L536.807 558.602L532.59 520.41L541.409 517.927ZM549.155 555.125L544.938 516.933L570.379 509.769L571.184 517.272L554.562 521.953L555.458 529.776L570.779 525.462L571.589 532.983L556.268 537.297L557.169 545.139L573.791 540.458L574.596 547.961L549.155 555.125ZM594.864 514.757C594.581 513.388 593.932 512.449 592.917 511.94C591.914 511.428 590.552 511.414 588.829 511.899C587.689 512.221 586.757 512.643 586.033 513.168C585.306 513.68 584.784 514.263 584.468 514.916C584.149 515.557 584.025 516.233 584.097 516.943C584.14 517.508 584.304 517.974 584.587 518.343C584.871 518.712 585.265 518.998 585.771 519.202C586.289 519.402 586.896 519.533 587.593 519.593C588.301 519.65 589.078 519.655 589.924 519.609L593.117 519.479C594.962 519.383 596.612 519.482 598.066 519.778C599.53 520.058 600.788 520.543 601.841 521.234C602.891 521.912 603.73 522.798 604.358 523.89C604.986 524.982 605.381 526.294 605.543 527.825C605.812 530.236 605.46 532.469 604.488 534.525C603.528 536.577 602.019 538.367 599.962 539.895C597.918 541.419 595.375 542.61 592.334 543.466C589.294 544.322 586.582 544.592 584.198 544.276C581.823 543.945 579.898 542.981 578.423 541.384C576.948 539.787 576.03 537.507 575.67 534.545L584.097 532.172C584.298 533.384 584.722 534.323 585.37 534.986C586.03 535.646 586.875 536.049 587.903 536.196C588.931 536.342 590.093 536.233 591.387 535.868C592.575 535.534 593.569 535.081 594.369 534.509C595.182 533.934 595.775 533.287 596.149 532.566C596.535 531.842 596.683 531.095 596.595 530.325C596.523 529.615 596.244 529.059 595.76 528.657C595.287 528.252 594.594 527.979 593.683 527.838C592.784 527.694 591.645 527.656 590.267 527.723L586.364 527.861C583.139 527.974 580.522 527.442 578.511 526.265C576.512 525.085 575.349 523.047 575.021 520.153C574.762 517.777 575.142 515.529 576.16 513.41C577.19 511.286 578.725 509.431 580.765 507.844C582.814 506.242 585.228 505.049 588.007 504.267C590.834 503.471 593.345 503.283 595.539 503.703C597.743 504.108 599.516 505.057 600.86 506.55C602.212 508.028 603.028 509.971 603.309 512.379L594.864 514.757Z"
            fill="url(#paint0_linear_1076_2103)" />
        <path
            d="M439.41 682.302C438.671 682.51 437.987 682.522 437.36 682.338C436.734 682.149 436.195 681.798 435.743 681.285C435.291 680.772 434.957 680.133 434.742 679.367C434.523 678.591 434.476 677.866 434.601 677.19C434.725 676.512 435.004 675.93 435.44 675.446C435.877 674.962 436.454 674.619 437.173 674.416C437.753 674.253 438.301 674.215 438.816 674.303C439.329 674.387 439.78 674.582 440.166 674.888C440.556 675.193 440.85 675.595 441.048 676.094L439.601 676.501C439.421 676.166 439.152 675.909 438.794 675.731C438.439 675.551 438.025 675.529 437.551 675.662C437.137 675.779 436.805 675.99 436.555 676.297C436.307 676.599 436.154 676.975 436.094 677.425C436.034 677.871 436.08 678.366 436.233 678.909C436.39 679.466 436.61 679.923 436.893 680.28C437.176 680.637 437.503 680.883 437.873 681.018C438.247 681.152 438.645 681.16 439.066 681.042C439.348 680.962 439.588 680.839 439.788 680.672C439.99 680.5 440.142 680.295 440.242 680.056C440.346 679.815 440.391 679.549 440.377 679.256L441.824 678.848C441.91 679.357 441.873 679.843 441.714 680.307C441.554 680.77 441.281 681.176 440.892 681.525C440.507 681.873 440.013 682.132 439.41 682.302ZM447.008 680.163C446.256 680.374 445.563 680.396 444.929 680.228C444.297 680.055 443.751 679.717 443.291 679.213C442.833 678.705 442.492 678.055 442.269 677.263C442.049 676.481 442.001 675.751 442.125 675.072C442.251 674.392 442.531 673.811 442.964 673.328C443.4 672.843 443.973 672.501 444.682 672.302C445.113 672.18 445.551 672.134 445.995 672.163C446.44 672.191 446.866 672.313 447.273 672.527C447.68 672.742 448.046 673.066 448.368 673.501C448.69 673.933 448.949 674.495 449.144 675.188L449.292 675.715L443.222 677.424L442.908 676.311L447.522 675.011C447.412 674.62 447.235 674.296 446.991 674.04C446.746 673.779 446.454 673.602 446.116 673.508C445.782 673.412 445.422 673.419 445.038 673.527C444.62 673.645 444.285 673.85 444.031 674.143C443.78 674.432 443.616 674.765 443.539 675.14C443.465 675.512 443.481 675.888 443.589 676.269L443.834 677.139C443.977 677.65 444.189 678.059 444.469 678.366C444.752 678.673 445.083 678.875 445.461 678.973C445.838 679.067 446.243 679.053 446.677 678.93C446.959 678.851 447.205 678.739 447.415 678.594C447.623 678.446 447.789 678.267 447.913 678.057C448.036 677.847 448.109 677.61 448.131 677.346L449.609 677.203C449.613 677.649 449.513 678.069 449.309 678.463C449.108 678.852 448.813 679.195 448.424 679.49C448.037 679.782 447.565 680.006 447.008 680.163ZM450.09 668.139L452.957 678.321L451.471 678.74L448.604 668.557L450.09 668.139ZM457.872 677.103C457.12 677.315 456.426 677.337 455.792 677.169C455.16 676.996 454.614 676.658 454.154 676.154C453.696 675.646 453.356 674.996 453.133 674.204C452.913 673.422 452.864 672.691 452.988 672.013C453.115 671.333 453.395 670.752 453.828 670.268C454.264 669.784 454.836 669.442 455.546 669.243C455.977 669.121 456.414 669.075 456.859 669.104C457.303 669.132 457.729 669.254 458.137 669.468C458.544 669.683 458.909 670.007 459.232 670.442C459.554 670.874 459.812 671.436 460.007 672.129L460.156 672.656L454.085 674.365L453.772 673.252L458.385 671.952C458.275 671.561 458.098 671.237 457.854 670.98C457.609 670.72 457.318 670.543 456.98 670.449C456.645 670.353 456.286 670.36 455.901 670.468C455.484 670.585 455.148 670.791 454.894 671.084C454.643 671.373 454.479 671.705 454.403 672.081C454.328 672.453 454.345 672.829 454.452 673.21L454.697 674.08C454.841 674.591 455.053 675 455.332 675.307C455.616 675.614 455.946 675.816 456.324 675.913C456.701 676.008 457.107 675.994 457.541 675.871C457.823 675.792 458.068 675.68 458.278 675.535C458.487 675.387 458.653 675.208 458.776 674.998C458.899 674.788 458.972 674.551 458.994 674.287L460.473 674.144C460.477 674.59 460.377 675.01 460.173 675.404C459.971 675.793 459.676 676.136 459.287 676.431C458.9 676.723 458.429 676.947 457.872 677.103ZM462.454 675.647L459.586 665.465L461.073 665.046L462.138 668.83L462.228 668.804C462.269 668.621 462.342 668.402 462.445 668.148C462.549 667.893 462.723 667.647 462.967 667.41C463.211 667.17 463.57 666.983 464.044 666.85C464.66 666.676 465.254 666.677 465.826 666.852C466.398 667.027 466.904 667.37 467.344 667.879C467.788 668.387 468.126 669.054 468.358 669.879C468.59 670.705 468.652 671.451 468.543 672.118C468.433 672.783 468.183 673.341 467.792 673.795C467.4 674.245 466.896 674.557 466.279 674.731C465.815 674.861 465.414 674.89 465.075 674.818C464.739 674.744 464.459 674.626 464.235 674.464C464.01 674.302 463.83 674.152 463.695 674.015L463.571 674.05L463.905 675.238L462.454 675.647ZM462.835 671.418C462.986 671.955 463.197 672.404 463.466 672.765C463.736 673.125 464.051 673.378 464.41 673.524C464.768 673.666 465.161 673.677 465.589 673.557C466.033 673.432 466.371 673.209 466.603 672.89C466.834 672.567 466.969 672.181 467.006 671.73C467.047 671.279 466.996 670.798 466.852 670.287C466.71 669.783 466.507 669.352 466.241 668.994C465.979 668.635 465.665 668.382 465.298 668.235C464.934 668.087 464.529 668.076 464.081 668.202C463.65 668.323 463.317 668.537 463.081 668.843C462.849 669.148 462.712 669.521 462.672 669.962C462.631 670.403 462.686 670.888 462.835 671.418ZM470.678 673.331L468.528 665.694L469.965 665.29L470.306 666.503L470.386 666.48C470.409 666.03 470.564 665.638 470.849 665.304C471.136 664.965 471.504 664.733 471.951 664.607C472.044 664.581 472.154 664.553 472.282 664.524C472.413 664.495 472.517 664.474 472.592 664.464L472.993 665.886C472.928 665.886 472.817 665.898 472.659 665.921C472.5 665.94 472.344 665.972 472.192 666.015C471.841 666.114 471.548 666.276 471.315 666.503C471.084 666.725 470.926 666.99 470.841 667.297C470.755 667.6 470.758 667.917 470.852 668.249L472.165 672.912L470.678 673.331ZM477.833 671.499C477.349 671.635 476.887 671.669 476.445 671.6C476.003 671.528 475.618 671.351 475.293 671.071C474.97 670.79 474.739 670.399 474.598 669.898C474.476 669.468 474.459 669.09 474.547 668.764C474.634 668.439 474.796 668.156 475.032 667.914C475.268 667.672 475.548 667.461 475.873 667.28C476.197 667.099 476.534 666.937 476.883 666.792C477.326 666.61 477.685 666.462 477.961 666.349C478.235 666.232 478.426 666.116 478.533 666C478.64 665.884 478.668 665.736 478.618 665.557L478.608 665.523C478.486 665.088 478.268 664.787 477.956 664.617C477.647 664.446 477.252 664.429 476.771 664.564C476.271 664.705 475.908 664.927 475.682 665.231C475.458 665.53 475.33 665.829 475.296 666.128L473.809 666.203C473.844 665.693 473.981 665.25 474.219 664.875C474.459 664.496 474.77 664.183 475.151 663.937C475.531 663.686 475.952 663.496 476.413 663.367C476.717 663.281 477.051 663.226 477.413 663.203C477.777 663.176 478.135 663.214 478.487 663.319C478.841 663.423 479.164 663.624 479.456 663.921C479.746 664.215 479.969 664.64 480.126 665.197L481.554 670.268L480.102 670.677L479.808 669.633L479.749 669.65C479.707 669.869 479.616 670.099 479.476 670.338C479.336 670.578 479.132 670.802 478.865 671.009C478.598 671.217 478.254 671.38 477.833 671.499ZM477.82 670.214C478.231 670.099 478.56 669.919 478.806 669.674C479.055 669.428 479.219 669.153 479.298 668.849C479.379 668.54 479.377 668.234 479.292 667.933L479.015 666.948C478.977 667.016 478.888 667.095 478.749 667.184C478.612 667.269 478.452 667.355 478.269 667.443C478.085 667.527 477.905 667.608 477.731 667.685C477.555 667.76 477.408 667.823 477.29 667.874C477.012 667.992 476.766 668.127 476.551 668.28C476.34 668.433 476.186 668.61 476.09 668.813C475.995 669.011 475.985 669.243 476.06 669.508C476.164 669.876 476.378 670.116 476.703 670.229C477.027 670.338 477.399 670.333 477.82 670.214ZM484.528 661.189L484.864 662.382L480.693 663.556L480.357 662.363L484.528 661.189ZM480.961 660.219L482.447 659.8L484.481 667.024C484.563 667.312 484.667 667.517 484.794 667.639C484.92 667.757 485.059 667.824 485.21 667.838C485.363 667.849 485.521 667.831 485.683 667.786C485.803 667.752 485.905 667.714 485.989 667.673C486.074 667.631 486.14 667.598 486.187 667.574L486.801 668.726C486.724 668.784 486.611 668.851 486.461 668.929C486.313 669.011 486.119 669.087 485.882 669.157C485.492 669.274 485.108 669.307 484.729 669.256C484.35 669.206 484.013 669.057 483.718 668.811C483.424 668.565 483.211 668.212 483.082 667.751L480.961 660.219ZM487.903 668.48L485.753 660.844L487.239 660.425L489.39 668.062L487.903 668.48ZM486.172 659.454C485.913 659.527 485.667 659.503 485.433 659.383C485.201 659.259 485.051 659.076 484.983 658.834C484.914 658.588 484.946 658.354 485.08 658.13C485.216 657.902 485.413 657.752 485.672 657.679C485.931 657.606 486.176 657.632 486.407 657.756C486.642 657.877 486.793 658.059 486.862 658.305C486.93 658.546 486.896 658.781 486.76 659.009C486.627 659.233 486.43 659.381 486.172 659.454ZM491.18 662.664L492.456 667.198L490.97 667.617L488.819 659.98L490.246 659.579L490.596 660.821L490.691 660.795C490.753 660.341 490.936 659.939 491.242 659.588C491.55 659.236 491.992 658.98 492.565 658.818C493.085 658.672 493.572 658.653 494.025 658.761C494.476 658.867 494.87 659.103 495.206 659.47C495.542 659.837 495.798 660.335 495.976 660.965L497.344 665.822L495.857 666.241L494.54 661.562C494.384 661.009 494.118 660.617 493.742 660.386C493.365 660.153 492.924 660.107 492.42 660.249C492.076 660.346 491.79 660.507 491.564 660.731C491.34 660.955 491.192 661.233 491.117 661.566C491.045 661.894 491.066 662.26 491.18 662.664ZM502.97 667.5C502.364 667.671 501.819 667.738 501.337 667.703C500.858 667.666 500.444 667.555 500.095 667.371C499.746 667.186 499.46 666.958 499.237 666.684L500.366 665.797C500.496 665.918 500.659 666.039 500.854 666.159C501.053 666.282 501.298 666.365 501.59 666.408C501.884 666.45 502.237 666.414 502.648 666.298C503.211 666.139 503.638 665.87 503.929 665.492C504.22 665.116 504.282 664.63 504.114 664.034L503.691 662.532L503.596 662.559C503.553 662.747 503.474 662.964 503.361 663.21C503.252 663.456 503.071 663.692 502.821 663.92C502.57 664.148 502.211 664.328 501.744 664.46C501.141 664.63 500.557 664.642 499.994 664.496C499.433 664.347 498.934 664.035 498.496 663.56C498.061 663.082 497.729 662.437 497.501 661.625C497.272 660.813 497.213 660.078 497.325 659.42C497.44 658.762 497.696 658.21 498.093 657.766C498.49 657.318 498.994 657.008 499.608 656.835C500.082 656.702 500.487 656.673 500.823 656.75C501.159 656.824 501.437 656.942 501.658 657.105C501.883 657.268 502.062 657.416 502.197 657.55L502.306 657.519L501.957 656.281L503.414 655.871L505.612 663.676C505.797 664.332 505.796 664.914 505.61 665.421C505.423 665.928 505.098 666.355 504.635 666.704C504.175 667.052 503.62 667.317 502.97 667.5ZM501.725 663.134C502.152 663.014 502.486 662.813 502.725 662.531C502.966 662.245 503.11 661.893 503.157 661.475C503.207 661.054 503.157 660.579 503.009 660.052C502.864 659.538 502.66 659.107 502.398 658.759C502.135 658.411 501.826 658.169 501.469 658.033C501.111 657.894 500.716 657.886 500.281 658.008C499.834 658.134 499.494 658.355 499.261 658.671C499.027 658.984 498.889 659.359 498.848 659.796C498.81 660.233 498.859 660.695 498.996 661.182C499.137 661.682 499.337 662.1 499.596 662.435C499.855 662.77 500.163 663.002 500.521 663.13C500.883 663.257 501.284 663.258 501.725 663.134ZM513.684 661.387C512.968 661.589 512.297 661.601 511.671 661.423C511.045 661.245 510.501 660.903 510.04 660.396C509.579 659.889 509.237 659.241 509.015 658.452C508.792 657.66 508.744 656.926 508.872 656.249C509 655.573 509.285 654.995 509.726 654.517C510.167 654.039 510.746 653.699 511.462 653.497C512.178 653.295 512.849 653.284 513.475 653.461C514.101 653.639 514.645 653.983 515.107 654.494C515.569 655.004 515.911 655.655 516.135 656.447C516.357 657.236 516.403 657.967 516.274 658.64C516.146 659.313 515.861 659.889 515.419 660.367C514.978 660.846 514.399 661.186 513.684 661.387ZM513.337 660.138C513.801 660.007 514.151 659.776 514.387 659.445C514.623 659.114 514.756 658.724 514.787 658.275C514.822 657.826 514.77 657.356 514.632 656.865C514.494 656.378 514.294 655.951 514.03 655.586C513.768 655.216 513.45 654.949 513.075 654.787C512.7 654.624 512.281 654.608 511.817 654.739C511.349 654.87 510.997 655.104 510.758 655.439C510.523 655.774 510.389 656.167 510.356 656.62C510.325 657.069 510.378 657.537 510.515 658.024C510.653 658.515 510.853 658.943 511.113 659.31C511.377 659.676 511.696 659.938 512.07 660.098C512.447 660.256 512.87 660.27 513.337 660.138ZM522.385 655.352L521.126 650.883L522.618 650.463L524.768 658.1L523.307 658.511L522.934 657.189L522.855 657.211C522.794 657.668 522.608 658.087 522.296 658.468C521.988 658.845 521.546 659.114 520.973 659.276C520.482 659.414 520.018 659.428 519.579 659.319C519.143 659.206 518.757 658.966 518.421 658.599C518.089 658.231 517.834 657.732 517.657 657.103L516.289 652.245L517.775 651.826L519.093 656.505C519.239 657.025 519.5 657.399 519.875 657.626C520.251 657.853 520.668 657.902 521.129 657.772C521.408 657.694 521.665 657.546 521.901 657.329C522.14 657.112 522.311 656.836 522.414 656.503C522.52 656.169 522.511 655.786 522.385 655.352ZM526.346 657.655L524.195 650.019L525.632 649.614L525.974 650.827L526.053 650.805C526.077 650.355 526.231 649.962 526.516 649.628C526.804 649.29 527.171 649.057 527.618 648.931C527.711 648.905 527.822 648.878 527.949 648.849C528.081 648.819 528.184 648.799 528.26 648.788L528.66 650.21C528.596 650.21 528.485 650.222 528.327 650.245C528.168 650.265 528.012 650.296 527.859 650.339C527.508 650.438 527.216 650.601 526.983 650.827C526.752 651.05 526.594 651.314 526.509 651.621C526.422 651.924 526.426 652.242 526.519 652.573L527.832 657.237L526.346 657.655ZM536.068 646.675L536.404 647.869L532.089 649.084L531.753 647.891L536.068 646.675ZM535.086 655.194L532.687 646.672C532.552 646.195 532.545 645.77 532.665 645.396C532.785 645.019 532.995 644.704 533.295 644.451C533.595 644.195 533.947 644.01 534.352 643.896C534.65 643.812 534.912 643.765 535.138 643.755C535.364 643.742 535.533 643.741 535.647 643.751L535.638 645.053C535.563 645.052 535.467 645.054 535.35 645.059C535.232 645.059 535.095 645.082 534.94 645.126C534.578 645.228 534.345 645.39 534.24 645.613C534.137 645.835 534.134 646.115 534.229 646.453L536.573 654.775L535.086 655.194ZM539.332 653.998L537.182 646.362L538.668 645.943L540.819 653.58L539.332 653.998ZM537.601 644.972C537.342 645.045 537.096 645.021 536.862 644.901C536.63 644.777 536.48 644.594 536.412 644.352C536.343 644.106 536.375 643.872 536.509 643.648C536.645 643.42 536.842 643.27 537.101 643.197C537.36 643.124 537.605 643.15 537.836 643.274C538.071 643.394 538.222 643.577 538.291 643.822C538.359 644.064 538.325 644.299 538.189 644.527C538.056 644.751 537.859 644.899 537.601 644.972ZM542.399 653.135L540.248 645.498L541.685 645.094L542.027 646.307L542.106 646.284C542.13 645.834 542.284 645.442 542.569 645.108C542.857 644.769 543.224 644.537 543.672 644.411C543.764 644.385 543.875 644.357 544.002 644.328C544.134 644.299 544.237 644.278 544.313 644.268L544.713 645.69C544.649 645.69 544.538 645.702 544.38 645.725C544.221 645.744 544.065 645.776 543.912 645.819C543.561 645.918 543.269 646.08 543.036 646.307C542.805 646.529 542.647 646.794 542.562 647.101C542.475 647.404 542.479 647.721 542.572 648.053L543.885 652.716L542.399 653.135ZM551.449 644.356L550.169 644.974C550.064 644.818 549.928 644.679 549.762 644.558C549.599 644.436 549.4 644.354 549.167 644.312C548.933 644.271 548.662 644.293 548.354 644.38C547.933 644.499 547.609 644.692 547.38 644.96C547.151 645.225 547.077 645.505 547.16 645.8C547.232 646.055 547.385 646.234 547.617 646.337C547.85 646.439 548.191 646.481 548.64 646.462L549.932 646.399C550.68 646.363 551.274 646.466 551.714 646.707C552.154 646.948 552.45 647.339 552.602 647.879C552.731 648.337 552.713 648.782 552.549 649.214C552.387 649.643 552.099 650.024 551.685 650.359C551.275 650.693 550.761 650.946 550.145 651.12C549.29 651.361 548.541 651.375 547.898 651.163C547.254 650.947 546.775 650.518 546.462 649.876L547.838 649.253C548.033 649.602 548.296 649.834 548.629 649.948C548.96 650.058 549.35 650.051 549.797 649.925C550.285 649.787 550.646 649.577 550.88 649.292C551.114 649.005 551.19 648.713 551.107 648.418C551.039 648.18 550.893 648.004 550.669 647.892C550.447 647.779 550.143 647.733 549.755 647.753L548.382 647.833C547.624 647.872 547.024 647.761 546.583 647.503C546.145 647.243 545.849 646.842 545.696 646.298C545.569 645.848 545.584 645.418 545.741 645.009C545.898 644.6 546.171 644.238 546.562 643.924C546.952 643.607 547.434 643.367 548.007 643.206C548.833 642.974 549.533 642.97 550.108 643.194C550.681 643.415 551.129 643.803 551.449 644.356ZM555.852 641.104L556.188 642.297L552.017 643.472L551.681 642.279L555.852 641.104ZM552.285 640.134L553.771 639.716L555.805 646.94C555.887 647.228 555.991 647.433 556.118 647.555C556.244 647.673 556.383 647.739 556.534 647.754C556.687 647.765 556.845 647.747 557.007 647.701C557.127 647.668 557.229 647.63 557.313 647.588C557.398 647.546 557.464 647.514 557.511 647.49L558.125 648.642C558.048 648.699 557.935 648.767 557.785 648.845C557.637 648.926 557.443 649.002 557.206 649.073C556.816 649.189 556.432 649.223 556.053 649.172C555.674 649.121 555.337 648.973 555.042 648.727C554.748 648.481 554.535 648.127 554.406 647.666L552.285 640.134ZM563.488 636.207L566.356 646.389L564.814 646.823L562.381 638.182L562.322 638.199L560.333 640.476L559.919 639.004L561.992 636.628L563.488 636.207ZM572.274 644.872C571.591 645.065 570.948 645.119 570.345 645.035C569.745 644.95 569.231 644.742 568.802 644.412C568.375 644.078 568.072 643.637 567.893 643.091L569.454 642.651C569.559 642.947 569.734 643.18 569.978 643.351C570.226 643.518 570.515 643.618 570.847 643.654C571.179 643.689 571.527 643.655 571.892 643.553C572.293 643.44 572.628 643.27 572.897 643.044C573.169 642.817 573.358 642.555 573.464 642.257C573.569 641.955 573.575 641.641 573.482 641.313C573.386 640.971 573.214 640.696 572.966 640.487C572.719 640.274 572.408 640.139 572.031 640.085C571.658 640.029 571.236 640.067 570.765 640.2L569.905 640.442L569.552 639.189L570.412 638.947C570.79 638.84 571.102 638.679 571.349 638.463C571.599 638.246 571.772 637.993 571.866 637.706C571.959 637.415 571.96 637.105 571.867 636.777C571.779 636.462 571.63 636.209 571.422 636.017C571.217 635.821 570.966 635.693 570.67 635.633C570.378 635.572 570.058 635.591 569.71 635.689C569.378 635.782 569.085 635.931 568.832 636.135C568.58 636.334 568.397 636.572 568.281 636.848C568.165 637.12 568.144 637.414 568.218 637.729L566.732 638.148C566.593 637.593 566.619 637.063 566.81 636.559C567.004 636.054 567.323 635.611 567.767 635.232C568.211 634.853 568.745 634.576 569.368 634.401C570.021 634.217 570.621 634.186 571.166 634.307C571.715 634.425 572.177 634.658 572.554 635.006C572.935 635.353 573.194 635.777 573.331 636.279C573.495 636.848 573.472 637.377 573.263 637.865C573.057 638.352 572.708 638.739 572.216 639.024L572.238 639.103C572.943 639.016 573.542 639.137 574.036 639.466C574.533 639.795 574.87 640.282 575.048 640.925C575.209 641.485 575.194 642.031 575.005 642.564C574.818 643.095 574.491 643.565 574.022 643.972C573.553 644.376 572.97 644.676 572.274 644.872ZM577.952 640.328L577.431 638.516L577.689 638.443L579.822 634.355L581.602 633.853L579.167 638.51L578.934 638.576L577.952 640.328ZM577.314 643.303L574.446 633.121L575.933 632.702L578.8 642.884L577.314 643.303ZM582.136 641.945L578.38 639.086L579.111 637.758L583.961 641.431L582.136 641.945ZM588.091 640.268L585.224 630.086L586.711 629.667L587.776 633.451L587.866 633.426C587.907 633.242 587.98 633.023 588.083 632.769C588.187 632.514 588.361 632.268 588.605 632.031C588.849 631.791 589.208 631.604 589.682 631.471C590.298 631.297 590.892 631.298 591.464 631.473C592.036 631.649 592.542 631.991 592.982 632.5C593.425 633.008 593.763 633.675 593.996 634.5C594.228 635.326 594.29 636.072 594.181 636.74C594.071 637.404 593.821 637.963 593.43 638.416C593.038 638.866 592.534 639.178 591.917 639.352C591.453 639.483 591.052 639.511 590.713 639.439C590.377 639.365 590.097 639.247 589.873 639.085C589.648 638.923 589.468 638.773 589.333 638.636L589.209 638.671L589.543 639.859L588.091 640.268ZM588.473 636.04C588.624 636.577 588.835 637.025 589.104 637.386C589.374 637.746 589.688 637.999 590.048 638.145C590.406 638.287 590.799 638.298 591.227 638.178C591.671 638.053 592.009 637.831 592.241 637.511C592.472 637.189 592.607 636.802 592.644 636.351C592.685 635.9 592.634 635.419 592.49 634.908C592.348 634.405 592.145 633.974 591.879 633.615C591.617 633.256 591.303 633.003 590.936 632.856C590.572 632.708 590.167 632.697 589.719 632.823C589.288 632.945 588.955 633.158 588.719 633.464C588.487 633.769 588.35 634.142 588.31 634.583C588.269 635.024 588.324 635.509 588.473 636.04ZM600.262 633.423L599.003 628.953L600.495 628.533L602.645 636.17L601.184 636.581L600.811 635.259L600.732 635.281C600.671 635.739 600.485 636.158 600.173 636.539C599.864 636.915 599.423 637.184 598.85 637.346C598.359 637.484 597.895 637.499 597.456 637.39C597.02 637.276 596.634 637.036 596.298 636.669C595.966 636.301 595.711 635.803 595.534 635.173L594.166 630.315L595.652 629.897L596.97 634.575C597.116 635.096 597.377 635.469 597.752 635.696C598.127 635.923 598.545 635.972 599.006 635.842C599.284 635.764 599.542 635.616 599.778 635.4C600.017 635.182 600.188 634.907 600.291 634.574C600.397 634.24 600.387 633.856 600.262 633.423ZM605.969 638.325C605.747 638.387 605.539 638.426 605.347 638.441C605.155 638.459 605.009 638.461 604.908 638.446L604.923 637.127C605.216 637.124 605.466 637.087 605.676 637.018C605.885 636.948 606.05 636.816 606.17 636.621C606.294 636.425 606.371 636.14 606.402 635.767L606.443 635.208L601.471 628.258L603.062 627.81L606.664 633.192L606.744 633.17L607.009 626.699L608.605 626.249L607.895 635.791C607.862 636.23 607.771 636.619 607.623 636.958C607.476 637.299 607.266 637.584 606.994 637.811C606.721 638.038 606.38 638.209 605.969 638.325ZM614.808 632.911C614.055 633.123 613.362 633.145 612.728 632.977C612.096 632.804 611.55 632.466 611.09 631.962C610.632 631.454 610.292 630.804 610.069 630.012C609.848 629.23 609.8 628.499 609.924 627.821C610.051 627.141 610.331 626.559 610.763 626.076C611.199 625.592 611.772 625.25 612.481 625.051C612.912 624.929 613.35 624.883 613.794 624.912C614.239 624.94 614.665 625.062 615.072 625.276C615.48 625.491 615.845 625.815 616.167 626.25C616.489 626.682 616.748 627.244 616.943 627.937L617.091 628.464L611.021 630.173L610.707 629.06L615.321 627.76C615.211 627.369 615.034 627.045 614.79 626.788C614.545 626.528 614.253 626.351 613.916 626.257C613.581 626.161 613.222 626.168 612.837 626.276C612.419 626.393 612.084 626.599 611.83 626.892C611.579 627.181 611.415 627.513 611.338 627.889C611.264 628.261 611.28 628.637 611.388 629.018L611.633 629.888C611.776 630.399 611.988 630.808 612.268 631.115C612.551 631.422 612.882 631.624 613.26 631.721C613.637 631.815 614.042 631.801 614.477 631.679C614.758 631.6 615.004 631.488 615.214 631.343C615.422 631.195 615.588 631.016 615.712 630.806C615.835 630.596 615.908 630.359 615.93 630.095L617.408 629.952C617.412 630.398 617.312 630.818 617.109 631.212C616.907 631.601 616.612 631.944 616.223 632.239C615.836 632.531 615.364 632.755 614.808 632.911ZM619.27 631.488L617.119 623.852L618.556 623.447L618.898 624.66L618.977 624.638C619.001 624.188 619.155 623.795 619.44 623.461C619.728 623.123 620.095 622.89 620.543 622.764C620.635 622.738 620.746 622.711 620.874 622.682C621.005 622.652 621.108 622.632 621.184 622.621L621.584 624.043C621.52 624.044 621.409 624.055 621.251 624.078C621.092 624.098 620.936 624.129 620.783 624.172C620.432 624.271 620.14 624.434 619.907 624.661C619.676 624.883 619.518 625.147 619.433 625.454C619.346 625.757 619.35 626.075 619.443 626.406L620.756 631.07L619.27 631.488ZM628.32 622.71L627.04 623.328C626.935 623.172 626.8 623.033 626.633 622.911C626.47 622.789 626.271 622.707 626.038 622.666C625.804 622.624 625.534 622.647 625.225 622.734C624.804 622.852 624.48 623.046 624.251 623.314C624.022 623.579 623.948 623.859 624.032 624.154C624.103 624.409 624.256 624.588 624.489 624.69C624.721 624.793 625.062 624.835 625.511 624.816L626.803 624.753C627.551 624.717 628.145 624.82 628.585 625.061C629.025 625.302 629.321 625.692 629.473 626.233C629.602 626.69 629.584 627.135 629.42 627.568C629.258 627.996 628.97 628.378 628.556 628.712C628.146 629.046 627.632 629.3 627.016 629.474C626.161 629.714 625.412 629.729 624.769 629.516C624.125 629.3 623.647 628.872 623.333 628.23L624.709 627.607C624.904 627.956 625.167 628.188 625.5 628.301C625.832 628.412 626.221 628.404 626.669 628.278C627.156 628.141 627.517 627.93 627.752 627.646C627.985 627.358 628.061 627.067 627.978 626.772C627.91 626.533 627.765 626.358 627.54 626.246C627.318 626.133 627.014 626.086 626.626 626.106L625.253 626.187C624.495 626.225 623.895 626.115 623.454 625.856C623.016 625.597 622.72 625.196 622.567 624.652C622.44 624.201 622.455 623.771 622.612 623.362C622.769 622.953 623.043 622.592 623.434 622.278C623.824 621.96 624.305 621.721 624.879 621.56C625.704 621.327 626.404 621.323 626.979 621.548C627.553 621.769 628 622.156 628.32 622.71Z"
            fill="url(#paint1_linear_1076_2103)" />
        <path
            d="M383.759 686.413C403.066 652.847 442.78 597.258 517.77 611.747C559.243 620.942 612.895 603.246 622.245 516"
            stroke="url(#paint2_linear_1076_2103)" stroke-width="2.42417" stroke-linecap="round" />
        <g opacity="0.82">
            <path d="M303.967 263.117L561.071 301.778L570.982 349.998L313.327 308.218L303.967 263.117Z"
                fill="url(#paint3_linear_1076_2103)" fill-opacity="0.3" />
            <path d="M306.999 273.855L564.102 312.516L571.007 350.058L313.352 308.278L306.999 273.855Z"
                fill="url(#paint4_linear_1076_2103)" fill-opacity="0.2" />
            <path d="M395.885 361.358L421.364 363.151L410.471 324.141L384.17 319.754L395.885 361.358Z"
                fill="url(#paint5_linear_1076_2103)" fill-opacity="0.8" />
            <path d="M422.07 365.333L391.977 397.065L369.511 317.281L410.472 324.148L422.07 365.333Z"
                fill="url(#paint6_linear_1076_2103)" fill-opacity="0.8" />
            <g style="mix-blend-mode:lighten">
                <ellipse cx="439.685" cy="391.673" rx="102.815" ry="49.6577"
                    transform="rotate(-15.7269 439.685 391.673)" fill="url(#paint7_radial_1076_2103)"
                    fill-opacity="0.6" />
            </g>
            <path d="M395.888 361.362L391.977 397.065L369.511 317.281L384.171 319.753L395.888 361.362Z"
                fill="url(#paint8_linear_1076_2103)" />
            <path d="M395.346 290.041L392.913 262.953L439.617 249.916L415.242 286.323L395.346 290.041Z"
                fill="url(#paint9_linear_1076_2103)" fill-opacity="0.8" />
            <g opacity="0.7">
                <path
                    d="M415.241 286.323L395.345 290.042L384.169 319.753L395.886 361.361L416.265 355.192L426.413 326.632L415.241 286.323Z"
                    fill="url(#paint10_linear_1076_2103)" />
                <path
                    d="M415.241 286.323L395.345 290.042L384.169 319.753L395.886 361.361L416.265 355.192L426.413 326.632L415.241 286.323Z"
                    fill="url(#paint11_radial_1076_2103)" />
                <path
                    d="M415.241 286.323L395.345 290.042L384.169 319.753L395.886 361.361L416.265 355.192L426.413 326.632L415.241 286.323Z"
                    fill="url(#paint12_linear_1076_2103)" />
            </g>
            <path d="M395.345 290.043L420.823 291.837L410.474 324.147L384.173 319.754L395.345 290.043Z"
                fill="url(#paint13_linear_1076_2103)" fill-opacity="0.8" />
            <path d="M426.373 326.665L452.699 330.781L441.031 358.739L416.265 355.191L426.373 326.665Z"
                fill="url(#paint14_linear_1076_2103)" fill-opacity="0.8" />
            <path d="M395.345 290.043L420.823 291.837L440.72 288.119L415.24 286.325L395.345 290.043Z"
                fill="url(#paint15_linear_1076_2103)" fill-opacity="0.8" />
            <path d="M395.879 361.36L422.075 365.34L441.061 358.745L416.267 355.192L395.879 361.36Z"
                fill="url(#paint16_linear_1076_2103)" />
            <path d="M420.915 291.935L392.913 262.954L369.511 317.281L410.475 324.142L420.915 291.935Z"
                fill="url(#paint17_linear_1076_2103)" fill-opacity="0.9" />
            <path d="M452.689 330.791L462.755 332.442L439.477 249.776L440.701 288.132L452.689 330.791Z"
                fill="url(#paint18_linear_1076_2103)" fill-opacity="0.9" />
            <path d="M422.071 365.337L391.978 397.066L440.73 390.671L441.021 358.74L422.071 365.337Z"
                fill="url(#paint19_linear_1076_2103)" fill-opacity="0.9" />
            <path d="M452.694 330.779L462.751 332.441L440.729 390.669L441.02 358.737L452.694 330.779Z"
                fill="url(#paint20_linear_1076_2103)" />
            <path d="M420.916 291.935L392.913 262.953L439.509 249.832L440.701 288.131L420.916 291.935Z"
                fill="url(#paint21_linear_1076_2103)" />
            <path d="M420.916 291.935L392.913 262.953L439.509 249.832L440.701 288.131L420.916 291.935Z"
                fill="url(#paint22_linear_1076_2103)" fill-opacity="0.6" />
            <path d="M392.055 397.109L395.893 361.323L422.071 365.337L392.055 397.109Z"
                fill="url(#paint23_linear_1076_2103)" />
            <path d="M329.213 351.374L586.317 390.035L570.997 350.049L313.343 308.27L329.213 351.374Z"
                fill="url(#paint24_linear_1076_2103)" fill-opacity="0.4" />
            <path d="M326.488 341.697L583.592 380.358L570.997 350.049L313.343 308.27L326.488 341.697Z"
                fill="url(#paint25_linear_1076_2103)" fill-opacity="0.3" />
            <g opacity="0.7">
                <path
                    d="M440.72 288.116L420.868 291.823L410.471 324.14L422.071 365.335L441.06 358.727L452.691 330.766L440.72 288.116Z"
                    fill="url(#paint26_linear_1076_2103)" />
                <path
                    d="M440.72 288.116L420.868 291.823L410.471 324.14L422.071 365.335L441.06 358.727L452.691 330.766L440.72 288.116Z"
                    fill="url(#paint27_radial_1076_2103)" />
                <path
                    d="M440.72 288.116L420.868 291.823L410.471 324.14L422.071 365.335L441.06 358.727L452.691 330.766L440.72 288.116Z"
                    fill="url(#paint28_linear_1076_2103)" />
            </g>
        </g>
    </g>
    <defs>
        <filter id="filter0_f_1076_2103" x="0.661316" y="0.299988" width="886.4" height="886.4"
            filterUnits="userSpaceOnUse" color-interpolation-filters="sRGB">
            <feFlood flood-opacity="0" result="BackgroundImageFix" />
            <feBlend mode="normal" in="SourceGraphic" in2="BackgroundImageFix" result="shape" />
            <feGaussianBlur stdDeviation="131.85" result="effect1_foregroundBlur_1076_2103" />
        </filter>
        <filter id="filter1_f_1076_2103" x="-11.1605" y="59.2307" width="476.735" height="619.859"
            filterUnits="userSpaceOnUse" color-interpolation-filters="sRGB">
            <feFlood flood-opacity="0" result="BackgroundImageFix" />
            <feBlend mode="normal" in="SourceGraphic" in2="BackgroundImageFix" result="shape" />
            <feGaussianBlur stdDeviation="77.6327" result="effect1_foregroundBlur_1076_2103" />
        </filter>
        <filter id="filter2_f_1076_2103" x="211.419" y="-4.89821" width="622.497" height="627.066"
            filterUnits="userSpaceOnUse" color-interpolation-filters="sRGB">
            <feFlood flood-opacity="0" result="BackgroundImageFix" />
            <feBlend mode="normal" in="SourceGraphic" in2="BackgroundImageFix" result="shape" />
            <feGaussianBlur stdDeviation="77.6327" result="effect1_foregroundBlur_1076_2103" />
        </filter>
        <filter id="filter3_f_1076_2103" x="223.826" y="196.042" width="874.997" height="902.764"
            filterUnits="userSpaceOnUse" color-interpolation-filters="sRGB">
            <feFlood flood-opacity="0" result="BackgroundImageFix" />
            <feBlend mode="normal" in="SourceGraphic" in2="BackgroundImageFix" result="shape" />
            <feGaussianBlur stdDeviation="142.647" result="effect1_foregroundBlur_1076_2103" />
        </filter>
        <filter id="filter4_f_1076_2103" x="17.7578" y="191.64" width="685.738" height="764.229"
            filterUnits="userSpaceOnUse" color-interpolation-filters="sRGB">
            <feFlood flood-opacity="0" result="BackgroundImageFix" />
            <feBlend mode="normal" in="SourceGraphic" in2="BackgroundImageFix" result="shape" />
            <feGaussianBlur stdDeviation="142.647" result="effect1_foregroundBlur_1076_2103" />
        </filter>
        <filter id="filter5_f_1076_2103" x="310.25" y="417.77" width="481.341" height="649.312"
            filterUnits="userSpaceOnUse" color-interpolation-filters="sRGB">
            <feFlood flood-opacity="0" result="BackgroundImageFix" />
            <feBlend mode="normal" in="SourceGraphic" in2="BackgroundImageFix" result="shape" />
            <feGaussianBlur stdDeviation="77.6327" result="effect1_foregroundBlur_1076_2103" />
        </filter>
        <filter id="filter6_f_1076_2103" x="-171.09" y="256.124" width="742.714" height="847.518"
            filterUnits="userSpaceOnUse" color-interpolation-filters="sRGB">
            <feFlood flood-opacity="0" result="BackgroundImageFix" />
            <feBlend mode="normal" in="SourceGraphic" in2="BackgroundImageFix" result="shape" />
            <feGaussianBlur stdDeviation="142.647" result="effect1_foregroundBlur_1076_2103" />
        </filter>
        <filter id="filter7_f_1076_2103" x="-141.207" y="-70.7979" width="736.792" height="879.916"
            filterUnits="userSpaceOnUse" color-interpolation-filters="sRGB">
            <feFlood flood-opacity="0" result="BackgroundImageFix" />
            <feBlend mode="normal" in="SourceGraphic" in2="BackgroundImageFix" result="shape" />
            <feGaussianBlur stdDeviation="142.647" result="effect1_foregroundBlur_1076_2103" />
        </filter>
        <filter id="filter8_f_1076_2103" x="49.7591" y="189.999" width="502.538" height="564.654"
            filterUnits="userSpaceOnUse" color-interpolation-filters="sRGB">
            <feFlood flood-opacity="0" result="BackgroundImageFix" />
            <feBlend mode="normal" in="SourceGraphic" in2="BackgroundImageFix" result="shape" />
            <feGaussianBlur stdDeviation="95.098" result="effect1_foregroundBlur_1076_2103" />
        </filter>
        <filter id="filter9_f_1076_2103" x="122.618" y="-111.414" width="770.582" height="719.199"
            filterUnits="userSpaceOnUse" color-interpolation-filters="sRGB">
            <feFlood flood-opacity="0" result="BackgroundImageFix" />
            <feBlend mode="normal" in="SourceGraphic" in2="BackgroundImageFix" result="shape" />
            <feGaussianBlur stdDeviation="77.6327" result="effect1_foregroundBlur_1076_2103" />
        </filter>
        <filter id="filter10_f_1076_2103" x="117.866" y="291.195" width="520.991" height="643.283"
            filterUnits="userSpaceOnUse" color-interpolation-filters="sRGB">
            <feFlood flood-opacity="0" result="BackgroundImageFix" />
            <feBlend mode="normal" in="SourceGraphic" in2="BackgroundImageFix" result="shape" />
            <feGaussianBlur stdDeviation="95.098" result="effect1_foregroundBlur_1076_2103" />
        </filter>
        <filter id="filter11_f_1076_2103" x="234.798" y="417.774" width="481.341" height="649.312"
            filterUnits="userSpaceOnUse" color-interpolation-filters="sRGB">
            <feFlood flood-opacity="0" result="BackgroundImageFix" />
            <feBlend mode="normal" in="SourceGraphic" in2="BackgroundImageFix" result="shape" />
            <feGaussianBlur stdDeviation="77.6327" result="effect1_foregroundBlur_1076_2103" />
        </filter>
        <filter id="filter12_f_1076_2103" x="-169.576" y="203.276" width="774.127" height="897.889"
            filterUnits="userSpaceOnUse" color-interpolation-filters="sRGB">
            <feFlood flood-opacity="0" result="BackgroundImageFix" />
            <feBlend mode="normal" in="SourceGraphic" in2="BackgroundImageFix" result="shape" />
            <feGaussianBlur stdDeviation="142.647" result="effect1_foregroundBlur_1076_2103" />
        </filter>
        <filter id="filter13_f_1076_2103" x="113.232" y="135.524" width="316.335" height="358.101"
            filterUnits="userSpaceOnUse" color-interpolation-filters="sRGB">
            <feFlood flood-opacity="0" result="BackgroundImageFix" />
            <feBlend mode="normal" in="SourceGraphic" in2="BackgroundImageFix" result="shape" />
            <feGaussianBlur stdDeviation="47.0488" result="effect1_foregroundBlur_1076_2103" />
        </filter>
        <filter id="filter14_f_1076_2103" x="263.919" y="25.297" width="339.79" height="410.859"
            filterUnits="userSpaceOnUse" color-interpolation-filters="sRGB">
            <feFlood flood-opacity="0" result="BackgroundImageFix" />
            <feBlend mode="normal" in="SourceGraphic" in2="BackgroundImageFix" result="shape" />
            <feGaussianBlur stdDeviation="47.0488" result="effect1_foregroundBlur_1076_2103" />
        </filter>
        <filter id="filter15_f_1076_2103" x="287.913" y="151.229" width="564.882" height="508.719"
            filterUnits="userSpaceOnUse" color-interpolation-filters="sRGB">
            <feFlood flood-opacity="0" result="BackgroundImageFix" />
            <feBlend mode="normal" in="SourceGraphic" in2="BackgroundImageFix" result="shape" />
            <feGaussianBlur stdDeviation="86.4502" result="effect1_foregroundBlur_1076_2103" />
        </filter>
        <filter id="filter16_f_1076_2103" x="170.985" y="183.041" width="423.707" height="457.93"
            filterUnits="userSpaceOnUse" color-interpolation-filters="sRGB">
            <feFlood flood-opacity="0" result="BackgroundImageFix" />
            <feBlend mode="normal" in="SourceGraphic" in2="BackgroundImageFix" result="shape" />
            <feGaussianBlur stdDeviation="86.4502" result="effect1_foregroundBlur_1076_2103" />
        </filter>
        <filter id="filter17_f_1076_2103" x="356.234" y="294.797" width="330.642" height="368.691"
            filterUnits="userSpaceOnUse" color-interpolation-filters="sRGB">
            <feFlood flood-opacity="0" result="BackgroundImageFix" />
            <feBlend mode="normal" in="SourceGraphic" in2="BackgroundImageFix" result="shape" />
            <feGaussianBlur stdDeviation="47.0488" result="effect1_foregroundBlur_1076_2103" />
        </filter>
        <filter id="filter18_f_1076_2103" x="92.9331" y="237.408" width="427.585" height="525.695"
            filterUnits="userSpaceOnUse" color-interpolation-filters="sRGB">
            <feFlood flood-opacity="0" result="BackgroundImageFix" />
            <feBlend mode="normal" in="SourceGraphic" in2="BackgroundImageFix" result="shape" />
            <feGaussianBlur stdDeviation="86.4502" result="effect1_foregroundBlur_1076_2103" />
        </filter>
        <filter id="filter19_f_1076_2103" x="34.4184" y="56.7246" width="473.94" height="515.707"
            filterUnits="userSpaceOnUse" color-interpolation-filters="sRGB">
            <feFlood flood-opacity="0" result="BackgroundImageFix" />
            <feBlend mode="normal" in="SourceGraphic" in2="BackgroundImageFix" result="shape" />
            <feGaussianBlur stdDeviation="86.4502" result="effect1_foregroundBlur_1076_2103" />
        </filter>
        <filter id="filter20_f_1076_2103" x="180.586" y="190.589" width="301.647" height="344.081"
            filterUnits="userSpaceOnUse" color-interpolation-filters="sRGB">
            <feFlood flood-opacity="0" result="BackgroundImageFix" />
            <feBlend mode="normal" in="SourceGraphic" in2="BackgroundImageFix" result="shape" />
            <feGaussianBlur stdDeviation="57.6335" result="effect1_foregroundBlur_1076_2103" />
        </filter>
        <filter id="filter21_f_1076_2103" x="195.349" y="-33.8085" width="439.854" height="463.402"
            filterUnits="userSpaceOnUse" color-interpolation-filters="sRGB">
            <feFlood flood-opacity="0" result="BackgroundImageFix" />
            <feBlend mode="normal" in="SourceGraphic" in2="BackgroundImageFix" result="shape" />
            <feGaussianBlur stdDeviation="47.0488" result="effect1_foregroundBlur_1076_2103" />
        </filter>
        <filter id="filter22_f_1076_2103" x="229.82" y="244.589" width="339.566" height="374.604"
            filterUnits="userSpaceOnUse" color-interpolation-filters="sRGB">
            <feFlood flood-opacity="0" result="BackgroundImageFix" />
            <feBlend mode="normal" in="SourceGraphic" in2="BackgroundImageFix" result="shape" />
            <feGaussianBlur stdDeviation="57.6335" result="effect1_foregroundBlur_1076_2103" />
        </filter>
        <filter id="filter23_f_1076_2103" x="312.219" y="307.199" width="330.642" height="368.691"
            filterUnits="userSpaceOnUse" color-interpolation-filters="sRGB">
            <feFlood flood-opacity="0" result="BackgroundImageFix" />
            <feBlend mode="normal" in="SourceGraphic" in2="BackgroundImageFix" result="shape" />
            <feGaussianBlur stdDeviation="47.0488" result="effect1_foregroundBlur_1076_2103" />
        </filter>
        <filter id="filter24_f_1076_2103" x="94.9087" y="200.385" width="434.637" height="561.824"
            filterUnits="userSpaceOnUse" color-interpolation-filters="sRGB">
            <feFlood flood-opacity="0" result="BackgroundImageFix" />
            <feBlend mode="normal" in="SourceGraphic" in2="BackgroundImageFix" result="shape" />
            <feGaussianBlur stdDeviation="86.4502" result="effect1_foregroundBlur_1076_2103" />
        </filter>
        <linearGradient id="paint0_linear_1076_2103" x1="623.22" y1="493.198" x2="364.202" y2="544.806"
            gradientUnits="userSpaceOnUse">
            <stop stop-color="white" stop-opacity="0" />
            <stop offset="1" stop-color="white" />
        </linearGradient>
        <linearGradient id="paint1_linear_1076_2103" x1="756.148" y1="624.047" x2="431.864" y2="673.211"
            gradientUnits="userSpaceOnUse">
            <stop stop-color="white" stop-opacity="0" />
            <stop offset="1" stop-color="white" />
        </linearGradient>
        <linearGradient id="paint2_linear_1076_2103" x1="711.745" y1="568.59" x2="320.887" y2="692.547"
            gradientUnits="userSpaceOnUse">
            <stop stop-color="#4298E7" />
            <stop offset="1" stop-color="white" />
        </linearGradient>
        <linearGradient id="paint3_linear_1076_2103" x1="342.672" y1="284.888" x2="543.41" y2="337.326"
            gradientUnits="userSpaceOnUse">
            <stop stop-color="#9492ED" stop-opacity="0" />
            <stop offset="0.546875" stop-color="#7674EC" />
            <stop offset="1" stop-color="#817FDF" stop-opacity="0" />
        </linearGradient>
        <linearGradient id="paint4_linear_1076_2103" x1="342.697" y1="284.948" x2="543.435" y2="337.386"
            gradientUnits="userSpaceOnUse">
            <stop stop-color="#232183" stop-opacity="0" />
            <stop offset="0.546875" stop-color="#232183" />
            <stop offset="1" stop-color="#232183" stop-opacity="0" />
        </linearGradient>
        <linearGradient id="paint5_linear_1076_2103" x1="386.733" y1="328.856" x2="411.103" y2="324.135"
            gradientUnits="userSpaceOnUse">
            <stop stop-color="#548DD1" />
            <stop offset="0.59375" stop-color="#E39DE5" />
            <stop offset="1" stop-color="white" />
        </linearGradient>
        <linearGradient id="paint6_linear_1076_2103" x1="374.868" y1="352.016" x2="430.489" y2="348.897"
            gradientUnits="userSpaceOnUse">
            <stop offset="0.0340296" stop-color="#2B79ED" stop-opacity="0.8" />
            <stop offset="0.791667" stop-color="#FCA6EF" stop-opacity="0.8" />
            <stop offset="1" stop-color="white" />
        </linearGradient>
        <radialGradient id="paint7_radial_1076_2103" cx="0" cy="0" r="1" gradientUnits="userSpaceOnUse"
            gradientTransform="translate(439.685 391.673) rotate(90) scale(49.6577 102.815)">
            <stop offset="0.0729167" stop-color="white" />
            <stop offset="0.34375" stop-color="#A873FF" stop-opacity="0.8" />
            <stop offset="1" stop-color="#0E7DFF" stop-opacity="0" />
        </radialGradient>
        <linearGradient id="paint8_linear_1076_2103" x1="383.567" y1="317.609" x2="395.123" y2="381.735"
            gradientUnits="userSpaceOnUse">
            <stop stop-color="#2295D6" />
            <stop offset="1" stop-color="#2249D6" stop-opacity="0.3" />
        </linearGradient>
        <linearGradient id="paint9_linear_1076_2103" x1="391.451" y1="270.129" x2="416.223" y2="289.781"
            gradientUnits="userSpaceOnUse">
            <stop stop-color="#4B86FA" stop-opacity="0.8" />
            <stop offset="0.534769" stop-color="#FCA6EF" stop-opacity="0.8" />
            <stop offset="0.716558" stop-color="white" />
        </linearGradient>
        <linearGradient id="paint10_linear_1076_2103" x1="418.81" y1="294.346" x2="366.609" y2="356.782"
            gradientUnits="userSpaceOnUse">
            <stop stop-color="#324BCC" />
            <stop offset="1" stop-color="white" stop-opacity="0.8" />
        </linearGradient>
        <radialGradient id="paint11_radial_1076_2103" cx="0" cy="0" r="1" gradientUnits="userSpaceOnUse"
            gradientTransform="translate(420.061 373) rotate(-105.727) scale(53.0808 30.5399)">
            <stop stop-color="#00F0FF" />
            <stop offset="1" stop-color="#00F0FF" stop-opacity="0" />
        </radialGradient>
        <linearGradient id="paint12_linear_1076_2103" x1="393.781" y1="353.884" x2="406.719" y2="325.619"
            gradientUnits="userSpaceOnUse">
            <stop stop-color="white" />
            <stop offset="1" stop-color="white" stop-opacity="0" />
        </linearGradient>
        <linearGradient id="paint13_linear_1076_2103" x1="390.828" y1="300.778" x2="413.882" y2="307.905"
            gradientUnits="userSpaceOnUse">
            <stop stop-color="#4078CB" />
            <stop offset="0.59375" stop-color="#E39DE5" />
            <stop offset="1" stop-color="white" />
        </linearGradient>
        <linearGradient id="paint14_linear_1076_2103" x1="451.686" y1="332.843" x2="415.676" y2="357.389"
            gradientUnits="userSpaceOnUse">
            <stop stop-color="#4078CB" />
            <stop offset="1" stop-color="#E39DE5" />
        </linearGradient>
        <linearGradient id="paint15_linear_1076_2103" x1="411.097" y1="287.024" x2="412.6" y2="294.086"
            gradientUnits="userSpaceOnUse">
            <stop stop-color="#4078CB" />
            <stop offset="0.59375" stop-color="#E39DE5" />
            <stop offset="1" stop-color="white" />
        </linearGradient>
        <linearGradient id="paint16_linear_1076_2103" x1="411.437" y1="357.65" x2="412.941" y2="364.712"
            gradientUnits="userSpaceOnUse">
            <stop stop-color="#4078CB" />
            <stop offset="0.59375" stop-color="#E39DE5" />
            <stop offset="1" stop-color="white" />
        </linearGradient>
        <linearGradient id="paint17_linear_1076_2103" x1="377.191" y1="296.721" x2="411.332" y2="316.481"
            gradientUnits="userSpaceOnUse">
            <stop offset="0.0729167" stop-color="#4B86FA" stop-opacity="0.8" />
            <stop offset="0.791667" stop-color="#FCA6EF" stop-opacity="0.8" />
            <stop offset="1" stop-color="white" />
        </linearGradient>
        <linearGradient id="paint18_linear_1076_2103" x1="441.252" y1="249.276" x2="464.37" y2="252.648"
            gradientUnits="userSpaceOnUse">
            <stop offset="0.00889157" stop-color="#1D2A9B" stop-opacity="0.8" />
            <stop offset="0.645598" stop-color="#FCA6EF" stop-opacity="0.8" />
            <stop offset="1" stop-color="white" />
        </linearGradient>
        <linearGradient id="paint19_linear_1076_2103" x1="390.89" y1="393.203" x2="447.921" y2="367.395"
            gradientUnits="userSpaceOnUse">
            <stop offset="0.0340296" stop-color="#4B5CFA" stop-opacity="0.8" />
            <stop offset="0.791667" stop-color="#FCA6EF" stop-opacity="0.8" />
            <stop offset="1" stop-color="white" />
        </linearGradient>
        <linearGradient id="paint20_linear_1076_2103" x1="459.731" y1="348.385" x2="445.022" y2="345.189"
            gradientUnits="userSpaceOnUse">
            <stop offset="0.0340296" stop-color="#4B5CFA" stop-opacity="0.8" />
            <stop offset="0.539474" stop-color="#FCA6EF" stop-opacity="0.8" />
            <stop offset="1" stop-color="white" />
        </linearGradient>
        <linearGradient id="paint21_linear_1076_2103" x1="441.521" y1="262.286" x2="429.963" y2="295.555"
            gradientUnits="userSpaceOnUse">
            <stop stop-color="#0A3892" />
            <stop offset="0.536458" stop-color="#29B2ED" stop-opacity="0.8" />
            <stop offset="0.967948" stop-color="white" />
        </linearGradient>
        <linearGradient id="paint22_linear_1076_2103" x1="440.698" y1="290.097" x2="417.754" y2="267.221"
            gradientUnits="userSpaceOnUse">
            <stop stop-color="#FF439D" />
            <stop offset="1" stop-color="#FF43D6" stop-opacity="0" />
        </linearGradient>
        <linearGradient id="paint23_linear_1076_2103" x1="392.914" y1="360.393" x2="423.658" y2="370.857"
            gradientUnits="userSpaceOnUse">
            <stop stop-color="#5BE2FF" />
            <stop offset="1" stop-color="#FF93E1" stop-opacity="0.6" />
        </linearGradient>
        <linearGradient id="paint24_linear_1076_2103" x1="342.688" y1="284.939" x2="543.426" y2="337.377"
            gradientUnits="userSpaceOnUse">
            <stop stop-color="#232183" stop-opacity="0" />
            <stop offset="0.546875" stop-color="#232183" />
            <stop offset="1" stop-color="#232183" stop-opacity="0" />
        </linearGradient>
        <linearGradient id="paint25_linear_1076_2103" x1="342.688" y1="284.939" x2="543.426" y2="337.377"
            gradientUnits="userSpaceOnUse">
            <stop stop-color="#232183" stop-opacity="0" />
            <stop offset="0.546875" stop-color="#8A88EC" />
            <stop offset="1" stop-color="#232183" stop-opacity="0" />
        </linearGradient>
        <linearGradient id="paint26_linear_1076_2103" x1="444.286" y1="296.139" x2="392.109" y2="358.423"
            gradientUnits="userSpaceOnUse">
            <stop stop-color="#324BCC" />
            <stop offset="1" stop-color="white" stop-opacity="0.8" />
        </linearGradient>
        <radialGradient id="paint27_radial_1076_2103" cx="0" cy="0" r="1" gradientUnits="userSpaceOnUse"
            gradientTransform="translate(445.576 374.764) rotate(-105.727) scale(53.0691 30.4702)">
            <stop stop-color="#00F0FF" />
            <stop offset="1" stop-color="#00F0FF" stop-opacity="0" />
        </radialGradient>
        <linearGradient id="paint28_linear_1076_2103" x1="425.868" y1="355.288" x2="436.091" y2="330.184"
            gradientUnits="userSpaceOnUse">
            <stop stop-color="white" />
            <stop offset="1" stop-color="white" stop-opacity="0" />
        </linearGradient>
        <clipPath id="clip0_1076_2103">
            <rect x="264.361" y="264" width="359" height="359" rx="170" fill="white" />
        </clipPath>
        <clipPath id="clip1_1076_2103">
            <rect width="260.599" height="493.925" fill="white" transform="translate(264 241) rotate(-15.7269)" />
        </clipPath>
        <clipPath id="clip2_1076_2103">
            <rect x="275.798" y="247.121" width="241.811" height="241.811" rx="24.2417"
                transform="rotate(-15.7269 275.798 247.121)" fill="white" />
        </clipPath>
    </defs>
</svg>