<svg width="18" height="13" viewBox="0 0 18 13" fill="none" xmlns="http://www.w3.org/2000/svg">
    <path
        d="M6.00002 10.1698L2.53002 6.69983C2.34305 6.51286 2.08945 6.40781 1.82502 6.40781C1.5606 6.40781 1.307 6.51286 1.12002 6.69983C0.933046 6.88681 0.828003 7.14041 0.828003 7.40483C0.828003 7.53576 0.853792 7.66541 0.903897 7.78638C0.954002 7.90734 1.02744 8.01725 1.12002 8.10983L5.30002 12.2898C5.69002 12.6798 6.32002 12.6798 6.71002 12.2898L17.29 1.70983C17.477 1.52286 17.582 1.26926 17.582 1.00483C17.582 0.740407 17.477 0.486811 17.29 0.299833C17.103 0.112856 16.8494 0.0078125 16.585 0.0078125C16.3206 0.0078125 16.067 0.112856 15.88 0.299833L6.00002 10.1698Z"
        fill="white" />
</svg>