<svg width="20" height="20" viewBox="0 0 20 20" fill="none" xmlns="http://www.w3.org/2000/svg">
    <circle cx="10" cy="10" r="10" fill="#2FB4FF" />
    <path
        d="M4.67439 9.91952C4.67439 9.91952 9.53943 7.94385 11.2267 7.24817C11.8735 6.96992 14.067 6.07945 14.067 6.07945C14.067 6.07945 15.0794 5.6899 14.995 6.63598C14.9669 7.02557 14.7419 8.38905 14.5169 9.86387C14.1795 11.9509 13.8139 14.2326 13.8139 14.2326C13.8139 14.2326 13.7577 14.8727 13.2796 14.984C12.8015 15.0953 12.0141 14.5944 11.8735 14.4831C11.761 14.3996 9.76439 13.1474 9.03323 12.5352C8.83637 12.3683 8.61141 12.0344 9.06133 11.6448C10.0737 10.7265 11.2829 9.58562 12.0141 8.86214C12.3516 8.5282 12.689 7.74906 11.2829 8.69515C9.28633 10.0587 7.31782 11.3387 7.31782 11.3387C7.31782 11.3387 6.86786 11.6169 6.02423 11.3665C5.18055 11.1161 4.19629 10.7822 4.19629 10.7822C4.19629 10.7822 3.52142 10.3648 4.67439 9.91952Z"
        fill="white" />
</svg>