<svg width="21" height="21" viewBox="0 0 21 21" fill="none" xmlns="http://www.w3.org/2000/svg">
    <path
        d="M12.2432 15.6858C10.6376 15.0894 8.98609 14.9976 7.4722 15.4105C6.41707 15.6858 5.40782 16.2363 4.49031 16.9244L3.84805 17.4749L3.66455 17.6584L4.07743 18.0254C4.1233 18.0254 4.12331 18.0713 4.16918 18.1171C4.26093 18.2089 4.35269 18.2548 4.49031 18.3465L4.76555 18.53L5.04081 18.3006C5.08668 18.2548 5.17843 18.163 5.27018 18.1171C6.09594 17.429 7.01344 16.9703 7.97682 16.7409C9.21545 16.4198 10.5458 16.4656 11.8762 16.9703C12.9772 17.3831 15.2251 17.8878 17.9317 16.7409L18.0235 16.695L18.1611 16.5574C18.1611 16.5115 18.207 16.5115 18.2529 16.4656C18.4823 16.1904 18.7116 15.9151 18.8951 15.594L19.8126 14.1719L18.3446 14.9976C16.1885 16.1904 14.2159 16.4198 12.2432 15.6858Z"
        fill="white" />
    <path
        d="M5.95825 10.7301C7.19688 10.4089 8.52726 10.4548 9.85764 10.9594C11.3256 11.5099 15.0874 12.2898 19.3079 8.48218L19.9961 7.79405L20.0419 7.74817L20.2254 7.56467L20.1337 7.3353C20.0878 7.15179 19.9961 6.92242 19.9043 6.69305L19.6749 6.05078L19.2162 6.50953C19.1703 6.60128 19.0786 6.64716 18.9868 6.73891C16.9683 8.80329 13.8488 10.9136 10.2705 9.62906C8.66488 9.03268 7.01338 8.94093 5.49949 9.3538C4.03149 9.76668 2.74698 10.5466 1.55422 11.6476V11.6017L0.866095 12.3357C0.866095 12.3816 0.820228 12.3816 0.774353 12.4274L0.636719 12.5651L0.682597 12.7486C0.728472 12.9779 0.82022 13.2073 0.866095 13.4367L1.14135 14.1707L1.6001 13.5743C1.64598 13.4826 1.73772 13.4367 1.7836 13.345C2.74698 12.4733 4.07736 11.2347 5.95825 10.7301Z"
        fill="white" />
    <path
        d="M1.50824 9.9051C2.56337 8.8041 3.75612 8.11596 5.04063 7.74896C6.27926 7.42784 7.60964 7.47371 8.94002 7.97834C13.0688 9.49222 16.6471 7.01496 18.2068 5.68458L18.8032 5.0882L19.0326 4.90469L18.8491 4.62945C18.7114 4.49183 18.6197 4.30832 18.4821 4.12482L18.2068 3.75781L17.8857 4.07894C17.8398 4.12482 17.7481 4.21657 17.7022 4.26244C15.7754 6.09745 12.7935 7.97834 9.39877 6.69384C7.79314 6.09746 6.14163 6.00571 4.62775 6.41858C3.66437 6.69383 2.74687 7.15258 1.82936 7.74896L0.865979 8.52885C0.774228 8.6206 0.728353 8.66647 0.636603 8.75822L0.544861 8.84996V8.9876C0.498985 9.30872 0.49898 9.62985 0.453105 9.9051L0.407227 11.052L1.18711 10.2262C1.27886 10.1345 1.37062 9.99685 1.50824 9.9051Z"
        fill="white" />
    <path
        d="M13.5734 18.803L13.4816 19.0782L13.5734 18.803C13.4357 18.7571 13.344 18.7112 13.2064 18.6653C11.6007 18.0689 9.94921 17.9772 8.43533 18.3901C8.1142 18.4818 7.79309 18.5736 7.47196 18.7112L6.37094 19.2158L6.0957 19.3534L7.01321 19.6746C7.28846 19.7663 7.5637 19.8581 7.83896 19.9498L7.97658 19.9957L8.11421 19.9498C8.25184 19.904 8.38946 19.8122 8.52708 19.8122C8.61883 19.8122 8.71059 19.7663 8.80234 19.7205C9.90334 19.4452 11.0961 19.4452 12.3806 19.8581C12.5182 19.904 12.61 19.9498 12.7476 19.9957L12.977 20.0875L13.1146 20.0416C13.4357 19.9498 13.8027 19.8581 14.078 19.7205L15.3625 19.2617L14.0321 18.9406C13.8945 18.8947 13.711 18.8488 13.5734 18.803Z"
        fill="white" />
    <path
        d="M20.5921 9.30859L19.904 9.99672C19.8122 10.0885 19.7205 10.1802 19.6287 10.272C17.7479 12.0611 14.7201 13.9879 11.3253 12.7034C9.71969 12.107 8.06818 12.0152 6.5543 12.4281C5.13217 12.841 3.84765 13.575 2.70077 14.676L2.1044 15.3182L1.9209 15.5476L2.1044 15.8229C2.24202 16.0064 2.33378 16.144 2.42553 16.3275L2.70077 16.7404L3.0219 16.3275C3.06778 16.2816 3.15952 16.1899 3.2054 16.144C4.3064 14.9512 5.49916 14.2172 6.87542 13.8502C8.11405 13.5291 9.44443 13.575 10.7748 14.0796C11.9217 14.4925 13.1145 14.6301 14.3072 14.4925C16.4175 14.2631 18.5277 13.0704 20.0875 11.74C20.1792 11.6482 20.271 11.6024 20.3627 11.5106L20.5004 11.373V11.2354C20.5004 10.9601 20.5462 10.639 20.5462 10.3637L20.5921 9.30859Z"
        fill="white" />
    <path
        d="M3.15964 5.08527L3.02202 4.81001L3.15964 5.08527C3.43489 4.94764 3.75603 4.85589 4.03128 4.76414C5.26991 4.44301 6.60029 4.48888 7.93067 4.99351C8.8023 5.31464 9.67393 5.45226 10.6373 5.45226C12.5641 5.45226 14.4908 4.76414 16.28 3.43376L16.9681 2.88325L17.1975 2.69975L16.7846 2.37862C16.647 2.24099 16.4635 2.10337 16.28 2.01162L16.0047 1.82812L15.7753 2.01162C15.6836 2.0575 15.6377 2.14925 15.5459 2.19512C13.1146 4.03013 10.6832 4.53476 8.38943 3.66313C6.73792 3.06676 5.0864 2.92913 3.43489 3.43376C3.29727 3.47963 3.15964 3.5255 2.97614 3.57138L2.8844 3.61726L2.74677 3.75488C2.74677 3.80075 2.7009 3.80076 2.65502 3.84663C2.47152 4.12188 2.24214 4.35126 2.05864 4.62652L1.18701 5.95689L2.60915 5.22289C2.83852 5.22289 3.02201 5.13114 3.15964 5.08527Z"
        fill="white" />
    <path
        d="M6.92163 1.968L7.05925 2.01388C7.65562 2.24325 8.57314 2.47263 9.72002 2.47263C10.9128 2.47263 12.0597 2.19737 13.2065 1.73862L14.6287 1.05049L13.6653 0.729376C13.39 0.637626 13.1148 0.545875 12.7936 0.5H12.656L12.5184 0.545864C12.3808 0.591739 12.2431 0.683501 12.1055 0.729376C10.7293 1.234 9.35301 1.32575 8.02263 0.958752C7.885 0.912877 7.74738 0.866993 7.60975 0.821118L7.47213 0.77524L7.3345 0.821118C7.05925 0.912869 6.784 1.00462 6.50875 1.14225L5.45361 1.601L6.55463 1.92212C6.64638 1.87625 6.784 1.92212 6.92163 1.968Z"
        fill="white" />
</svg>