<svg width="95" height="94" viewBox="0 0 95 94" fill="none" xmlns="http://www.w3.org/2000/svg">
    <path
        d="M47.5 0C38.2043 0 29.1173 2.7565 21.3882 7.92093C13.6591 13.0854 7.635 20.4257 4.07768 29.0139C0.520365 37.602 -0.410392 47.0521 1.40311 56.1692C3.21662 65.2863 7.69293 73.6609 14.266 80.234C20.8391 86.8071 29.2137 91.2834 38.3308 93.0969C47.4479 94.9104 56.898 93.9796 65.4861 90.4223C74.0743 86.865 81.4147 80.8409 86.5791 73.1118C91.7435 65.3827 94.5 56.2957 94.5 47C94.4868 34.5389 89.5309 22.5919 80.7195 13.7805C71.9081 4.96915 59.9612 0.0131592 47.5 0ZM68.1348 38.7117L42.8271 64.0194C42.4914 64.3556 42.0926 64.6222 41.6537 64.8042C41.2148 64.9861 40.7444 65.0798 40.2692 65.0798C39.7941 65.0798 39.3237 64.9861 38.8848 64.8042C38.4459 64.6222 38.0471 64.3556 37.7114 64.0194L26.8652 53.1733C26.1868 52.4949 25.8057 51.5748 25.8057 50.6154C25.8057 49.656 26.1868 48.7359 26.8652 48.0575C27.5436 47.3791 28.4637 46.998 29.4231 46.998C30.3825 46.998 31.3026 47.3791 31.981 48.0575L40.2692 56.3503L63.0191 33.596C63.355 33.26 63.7537 32.9936 64.1926 32.8118C64.6315 32.63 65.1019 32.5364 65.5769 32.5364C66.052 32.5364 66.5224 32.63 66.9613 32.8118C67.4001 32.9936 67.7989 33.26 68.1348 33.596C68.4707 33.9319 68.7372 34.3306 68.919 34.7695C69.1008 35.2084 69.1943 35.6788 69.1943 36.1538C69.1943 36.6289 69.1008 37.0993 68.919 37.5382C68.7372 37.977 68.4707 38.3758 68.1348 38.7117Z"
        fill="#0098E9" />
</svg>