<svg width="27" height="27" viewBox="0 0 27 27" fill="none" xmlns="http://www.w3.org/2000/svg">
    <g clip-path="url(#clip0_486_3166)">
        <path
            d="M13.5 27C20.9558 27 27 20.9558 27 13.5C27 6.04416 20.9558 0 13.5 0C6.04416 0 0 6.04416 0 13.5C0 20.9558 6.04416 27 13.5 27Z"
            fill="#009393" />
        <path fill-rule="evenodd" clip-rule="evenodd"
            d="M13.5163 14.464C15.838 14.464 17.7783 14.0715 18.2524 13.547C17.8498 13.1022 16.3935 12.7519 14.544 12.656V13.764C14.2129 13.7812 13.8687 13.7897 13.516 13.7897C13.1633 13.7897 12.819 13.7812 12.4873 13.764V12.656C10.6384 12.7519 9.18146 13.1022 8.77882 13.547C9.25368 14.0715 11.1943 14.464 13.516 14.464H13.5163ZM17.6412 9.24862V10.7745H14.544V11.8325C16.7195 11.9456 18.352 12.4107 18.3642 12.9672V14.1275C18.352 14.6841 16.7195 15.1481 14.544 15.2615V17.8582H12.4876V15.2615C10.3121 15.1485 8.68027 14.6841 8.66812 14.1275V12.9672C8.68027 12.4107 10.3121 11.9456 12.4876 11.8325V10.7745H9.39037V9.24862H17.6416H17.6412ZM8.17233 6.82031H19.0452C19.3051 6.82031 19.5444 6.957 19.674 7.17908L22.8414 12.6182C23.0055 12.9004 22.9569 13.2564 22.7226 13.4849L14.0037 21.996C13.7208 22.2717 13.2666 22.2717 12.9844 21.996L4.27623 13.4964C4.03694 13.2622 3.99172 12.896 4.16823 12.6125L7.55437 7.1622C7.68633 6.95025 7.92056 6.82065 8.17267 6.82065L8.17233 6.82031Z"
            fill="#F5F5F7" />
    </g>
    <defs>
        <clipPath id="clip0_486_3166">
            <rect width="27" height="27" fill="white" />
        </clipPath>
    </defs>
</svg>